<?xml version="1.0" encoding="UTF-8"?>
<svg version="1.1" xmlns="http://www.w3.org/2000/svg" width="528" height="220">
<path d="M0 0 C174.24 0 348.48 0 528 0 C528 72.6 528 145.2 528 220 C353.76 220 179.52 220 0 220 C0 147.4 0 74.8 0 0 Z " fill="#FEFEFE" transform="translate(0,0)"/>
<path d="M0 0 C35.31 0 70.62 0 107 0 C106.07319366 4.63403169 104.65339659 8.65102351 102.8671875 12.984375 C102.55226349 13.75823547 102.23733948 14.53209595 101.91287231 15.32940674 C100.90438391 17.80464902 99.88977578 20.27732968 98.875 22.75 C98.21574634 24.36572247 97.55688865 25.98160657 96.8984375 27.59765625 C92.62458565 38.07566382 88.308621 48.53620613 84 59 C64.2 59 44.4 59 24 59 C21.339375 52.60625 18.67875 46.2125 15.9375 39.625 C15.1137085 37.64838379 14.28991699 35.67176758 13.44116211 33.63525391 C12.76139459 31.99909048 12.0817794 30.36286376 11.40234375 28.7265625 C11.07109497 27.93338623 10.73984619 27.14020996 10.39855957 26.32299805 C6.78174807 17.60151858 3.42536058 8.80807007 0 0 Z " fill="#095CA6" transform="translate(92,89)"/>
<path d="M0 0 C0.85332916 -0.00902847 1.70665833 -0.01805695 2.58584595 -0.02735901 C4.39313234 -0.04188046 6.20047153 -0.05075294 8.0078125 -0.05444336 C10.7717368 -0.06633173 13.53342283 -0.11548872 16.296875 -0.16601562 C18.05207242 -0.1754806 19.80728358 -0.18271528 21.5625 -0.1875 C22.38865814 -0.20703232 23.21481628 -0.22656464 24.06600952 -0.24668884 C27.92126093 -0.21641804 29.76050566 -0.19397629 32.74560547 2.38696289 C34.7988327 6.05927726 36.43143721 9.76022257 37.9609375 13.67578125 C38.28954269 14.49589188 38.61814789 15.3160025 38.95671082 16.16096497 C40.03362336 18.85297062 41.09878847 21.54946393 42.1640625 24.24609375 C43.29243387 27.07600746 44.42375773 29.90472909 45.55528259 32.73338318 C46.33283798 34.67762464 47.10940773 36.62226056 47.88502502 38.567276 C50.55479681 45.25505935 53.27012596 51.9227074 56.01953125 58.578125 C56.38670258 59.46757813 56.7538739 60.35703125 57.13217163 61.2734375 C58.55047415 64.70691004 59.96988842 68.13990171 61.3951416 71.57049561 C62.37216928 73.92326231 63.34464138 76.27786828 64.31640625 78.6328125 C64.60210983 79.31648392 64.88781342 80.00015533 65.18217468 80.70454407 C66.89507912 84.86701245 68.20661488 89.03874458 69.4140625 93.37109375 C70.77589409 93.361101 70.77589409 93.361101 72.16523743 93.35090637 C80.71435447 93.29083621 89.26340081 93.2451402 97.81268024 93.21565723 C102.20813805 93.19999025 106.60342172 93.17873331 110.9987793 93.14477539 C115.23925174 93.11221851 119.47955651 93.09424852 123.72014427 93.08646202 C125.33931303 93.08091188 126.95847244 93.07007396 128.57756996 93.05390358 C130.84268773 93.03217758 133.10710953 93.02912472 135.37231445 93.03051758 C136.66248978 93.02385574 137.9526651 93.01719391 139.28193665 93.0103302 C142.4140625 93.37109375 142.4140625 93.37109375 144.3346405 94.70097351 C146.00171172 97.2803256 145.73170367 99.38526675 145.4140625 102.37109375 C142.55864314 105.22651311 139.73258565 104.68171535 135.90673828 104.69335938 C134.74550949 104.70825409 134.74550949 104.70825409 133.56082153 104.72344971 C130.99363684 104.75271749 128.42669928 104.76630027 125.859375 104.77734375 C124.07819611 104.78884453 122.29701732 104.80036002 120.51583862 104.81188965 C116.77828821 104.83291648 113.04082392 104.84459729 109.30322266 104.8515625 C104.51201028 104.86253521 99.72193387 104.91059036 94.93107796 104.96750641 C91.25076974 105.00474094 87.57073566 105.01516924 83.89025497 105.01823425 C82.12394879 105.02429257 80.35764774 105.04036798 78.59152603 105.06660461 C76.12019541 105.10069703 73.6516457 105.0969788 71.18017578 105.08398438 C70.44963989 105.10241394 69.719104 105.12084351 68.96643066 105.13983154 C66.91873169 105.1060791 66.91873169 105.1060791 63.4140625 104.37109375 C60.51024282 100.99616315 58.80372824 97.34756962 57.14672852 93.24072266 C56.74812119 92.26232422 56.34951385 91.28392578 55.93882751 90.27587891 C55.30975243 88.70265869 55.30975243 88.70265869 54.66796875 87.09765625 C54.21986343 85.99260742 53.77175812 84.88755859 53.31007385 83.74902344 C51.85928878 80.16721714 50.41787302 76.58172173 48.9765625 72.99609375 C47.98550322 70.54450032 46.99380229 68.09316618 46.00146484 65.64208984 C44.03913629 60.79268358 42.08022147 55.941923 40.12451172 51.08984375 C36.88899342 43.0646132 33.63060318 35.04876417 30.36837769 27.03436279 C28.38024138 22.14797369 26.39758861 17.2593556 24.4140625 12.37109375 C23.46563477 12.36174805 22.51720703 12.35240234 21.54003906 12.34277344 C18.01341492 12.29870144 14.48800047 12.23706592 10.96191406 12.16357422 C9.43728819 12.1353884 7.91251684 12.11416186 6.38769531 12.10009766 C4.19260314 12.07863326 1.99925539 12.03197206 -0.1953125 11.98046875 C-1.51499023 11.95952148 -2.83466797 11.93857422 -4.19433594 11.91699219 C-7.5859375 11.37109375 -7.5859375 11.37109375 -10.05566406 9.49707031 C-11.5859375 7.37109375 -11.5859375 7.37109375 -11.4609375 4.74609375 C-9.38219838 -0.89619816 -5.20842006 0.03364368 0 0 Z " fill="#0F60A8" transform="translate(41.5859375,61.62890625)"/>
<path d="M0 0 C11.55 0 23.1 0 35 0 C34.07319366 4.63403169 32.65339659 8.65102351 30.8671875 12.984375 C30.55226349 13.75823547 30.23733948 14.53209595 29.91287231 15.32940674 C28.90438391 17.80464902 27.88977578 20.27732968 26.875 22.75 C26.21574634 24.36572247 25.55688865 25.98160657 24.8984375 27.59765625 C20.62458565 38.07566382 16.308621 48.53620613 12 59 C-7.8 59 -27.6 59 -48 59 C-45.07400628 57.04933752 -42.13276145 55.53023809 -39 53.9375 C-16.54727565 42.00919575 -7.43217106 23.78294738 0 0 Z " fill="#0976B2" transform="translate(164,89)"/>
<path d="M0 0 C9.23530046 4.21611543 14.12023229 14.79680751 18.5625 23.4375 C18.92134277 24.12360352 19.28018555 24.80970703 19.64990234 25.51660156 C22.08006104 30.43024913 22.08006104 30.43024913 21.71069336 33.05883789 C20.69868264 35.82300732 18.85584944 37.7381835 17 40 C15.9458482 43.16245541 15.68724328 45.86948218 15.4375 49.1875 C15.293125 51.105625 15.14875 53.02375 15 55 C8.07 55 1.14 55 -6 55 C-9.75171589 43.24462356 -12.35868199 32.74405333 -12.375 20.375 C-12.41173828 18.89773437 -12.41173828 18.89773437 -12.44921875 17.390625 C-12.47551198 10.81731691 -11.50868265 6.59563144 -8 1 C-5.13391871 -0.43304064 -3.18699217 -0.30644155 0 0 Z " fill="#FDCF5D" transform="translate(102,31)"/>
<path d="M0 0 C3.44871354 0.62138983 5.294996 1.8546413 7.6015625 4.46875 C9.70111976 8.66786451 8.83093171 14.16768904 8.8515625 18.78125 C8.8721875 19.92271484 8.8928125 21.06417969 8.9140625 22.24023438 C8.91921875 23.34302734 8.924375 24.44582031 8.9296875 25.58203125 C8.9390332 26.59048096 8.94837891 27.59893066 8.95800781 28.63793945 C8.53983633 31.95896569 7.5807315 33.78898763 5.6015625 36.46875 C1.375684 39.28600233 -2.43468438 39.26833384 -7.3984375 38.46875 C-10.22268038 36.27852082 -11.81352353 34.63857793 -13.3984375 31.46875 C-13.72243245 27.39215532 -13.72296995 23.30662117 -13.7734375 19.21875 C-13.81082031 18.08566406 -13.84820312 16.95257813 -13.88671875 15.78515625 C-13.9857274 6.4013361 -13.9857274 6.4013361 -11.21875 2.7109375 C-7.25320535 -0.44172542 -4.88229473 -0.26319648 0 0 Z " fill="#262181" transform="translate(463.3984375,83.53125)"/>
<path d="M0 0 C3.44871354 0.62138983 5.294996 1.8546413 7.6015625 4.46875 C9.70111976 8.66786451 8.83093171 14.16768904 8.8515625 18.78125 C8.8721875 19.92271484 8.8928125 21.06417969 8.9140625 22.24023438 C8.91921875 23.34302734 8.924375 24.44582031 8.9296875 25.58203125 C8.9390332 26.59048096 8.94837891 27.59893066 8.95800781 28.63793945 C8.53983633 31.95896569 7.5807315 33.78898763 5.6015625 36.46875 C1.375684 39.28600233 -2.43468438 39.26833384 -7.3984375 38.46875 C-10.22268038 36.27852082 -11.81352353 34.63857793 -13.3984375 31.46875 C-13.72243245 27.39215532 -13.72296995 23.30662117 -13.7734375 19.21875 C-13.81082031 18.08566406 -13.84820312 16.95257813 -13.88671875 15.78515625 C-13.9857274 6.4013361 -13.9857274 6.4013361 -11.21875 2.7109375 C-7.25320535 -0.44172542 -4.88229473 -0.26319648 0 0 Z " fill="#262181" transform="translate(280.3984375,83.53125)"/>
<path d="M0 0 C3.94940424 2.3580994 7.55720323 5.28044144 9.625 9.4375 C10.12 13.8925 10.12 13.8925 10.625 18.4375 C-2.905 18.4375 -16.435 18.4375 -30.375 18.4375 C-27.49551353 5.47981088 -27.49551353 5.47981088 -20.875 0.5625 C-14.51466915 -3.10418327 -6.65287757 -2.93134452 0 0 Z " fill="#FF700A" transform="translate(178.375,68.5625)"/>
<path d="M0 0 C0.66 0 1.32 0 2 0 C2 1.32 2 2.64 2 4 C2.84304687 3.7834375 3.68609375 3.566875 4.5546875 3.34375 C5.65039062 3.0653125 6.74609375 2.786875 7.875 2.5 C8.96554688 2.2215625 10.05609375 1.943125 11.1796875 1.65625 C14 1 14 1 16 1 C15.74624791 4.72169726 15.39626084 6.55712024 12.875 9.375 C9.30843504 11.39088454 7.04132399 11.37419667 3 11 C2.01 10.67 1.02 10.34 0 10 C0 11.32 0 12.64 0 14 C0.66 13.67 1.32 13.34 2 13 C3.875 12.83203125 3.875 12.83203125 6 12.8125 C6.70125 12.79832031 7.4025 12.78414062 8.125 12.76953125 C10 13 10 13 12 15 C11.21625 15.99 10.4325 16.98 9.625 18 C6.45424165 22.00516844 6.41151701 24.35393194 5 30 C-3.58 30 -12.16 30 -21 30 C-22.72664699 26.54670602 -22.36301707 22.78301996 -22 19 C-20.57785705 15.34306099 -19.09170509 12.4488038 -16 10 C-13.87890625 9.85546875 -13.87890625 9.85546875 -11.5625 10.1875 C-10.80066406 10.28417969 -10.03882813 10.38085938 -9.25390625 10.48046875 C-6.92421968 11.01746756 -5.08519909 11.84577818 -3 13 C-2.95101562 12.22914062 -2.90203125 11.45828125 -2.8515625 10.6640625 C-2.77679688 9.66117188 -2.70203125 8.65828125 -2.625 7.625 C-2.55539063 6.62726562 -2.48578125 5.62953125 -2.4140625 4.6015625 C-2 2 -2 2 0 0 Z " fill="#E0052F" transform="translate(141,56)"/>
<path d="M0 0 C14 0 14 0 19 3 C20.97299514 4.97299514 20.18499989 8.68488518 20.1875 11.375 C20.19974609 12.06078125 20.21199219 12.7465625 20.22460938 13.453125 C20.23552331 17.19296797 20.1266842 18.8099737 18 22 C17.34 22 16.68 22 16 22 C17.98 27.28 19.96 32.56 22 38 C19.36 38 16.72 38 14 38 C13.32968281 36.0429132 12.66385317 34.08428887 12 32.125 C11.62875 31.03445312 11.2575 29.94390625 10.875 28.8203125 C10 26 10 26 10 24 C9.01 24 8.02 24 7 24 C7 28.62 7 33.24 7 38 C4.69 38 2.38 38 0 38 C0 25.46 0 12.92 0 0 Z " fill="#211C7E" transform="translate(339,84)"/>
<path d="M0 0 C14 0 14 0 19 3 C20.97299514 4.97299514 20.18499989 8.68488518 20.1875 11.375 C20.19974609 12.06078125 20.21199219 12.7465625 20.22460938 13.453125 C20.23552331 17.19296797 20.1266842 18.8099737 18 22 C17.34 22 16.68 22 16 22 C17.98 27.28 19.96 32.56 22 38 C19.36 38 16.72 38 14 38 C13.32968281 36.0429132 12.66385317 34.08428887 12 32.125 C11.62875 31.03445312 11.2575 29.94390625 10.875 28.8203125 C10 26 10 26 10 24 C9.01 24 8.02 24 7 24 C7 28.62 7 33.24 7 38 C4.69 38 2.38 38 0 38 C0 25.46 0 12.92 0 0 Z " fill="#211C7E" transform="translate(242,84)"/>
<path d="M0 0 C2.31 0 4.62 0 7 0 C7 5.28 7 10.56 7 16 C9.97 16 12.94 16 16 16 C16 10.72 16 5.44 16 0 C18.31 0 20.62 0 23 0 C23 12.54 23 25.08 23 38 C20.69 38 18.38 38 16 38 C16 32.72 16 27.44 16 22 C13.03 22 10.06 22 7 22 C7 27.28 7 32.56 7 38 C4.69 38 2.38 38 0 38 C0 25.46 0 12.92 0 0 Z " fill="#252180" transform="translate(423,84)"/>
<path d="M0 0 C14 0 14 0 19 3 C21.15904819 5.15904819 20.23159535 9.88884545 20.25 12.875 C20.270625 13.70386719 20.29125 14.53273438 20.3125 15.38671875 C20.31765625 16.18464844 20.3228125 16.98257813 20.328125 17.8046875 C20.34214355 18.90272705 20.34214355 18.90272705 20.35644531 20.02294922 C19.8957403 22.57828429 19.02586451 23.41977821 17 25 C13.52674819 26.1577506 10.63932552 26.06866652 7 26 C7 29.96 7 33.92 7 38 C4.69 38 2.38 38 0 38 C0 25.46 0 12.92 0 0 Z " fill="#201B7D" transform="translate(477,84)"/>
<path d="M0 0 C1.08410156 -0.00257812 2.16820312 -0.00515625 3.28515625 -0.0078125 C5.9375 0.125 5.9375 0.125 6.9375 1.125 C6.97830783 3.12458364 6.98004356 5.12545254 6.9375 7.125 C5.76380859 7.10759766 5.76380859 7.10759766 4.56640625 7.08984375 C3.55449219 7.08082031 2.54257813 7.07179688 1.5 7.0625 C-0.01400391 7.04509766 -0.01400391 7.04509766 -1.55859375 7.02734375 C-4.00271067 6.83887324 -4.00271067 6.83887324 -5.0625 8.125 C-5.1616657 9.74757544 -5.19329777 11.37439831 -5.1953125 13 C-5.19660156 13.98484375 -5.19789063 14.9696875 -5.19921875 15.984375 C-5.19535156 17.02078125 -5.19148437 18.0571875 -5.1875 19.125 C-5.19136719 20.16140625 -5.19523438 21.1978125 -5.19921875 22.265625 C-5.19792969 23.25046875 -5.19664062 24.2353125 -5.1953125 25.25 C-5.19362061 26.61511719 -5.19362061 26.61511719 -5.19189453 28.0078125 C-5.29810009 30.1102848 -5.29810009 30.1102848 -4.0625 31.125 C-2.4125 31.125 -0.7625 31.125 0.9375 31.125 C1.2675 26.835 1.5975 22.545 1.9375 18.125 C3.9175 18.125 5.8975 18.125 7.9375 18.125 C7.9375 24.065 7.9375 30.005 7.9375 36.125 C2.80451372 38.69149314 -1.40627788 38.82888542 -7.0625 38.125 C-10.06447464 36.32381522 -11.51416366 35.22167268 -13.0625 32.125 C-13.38701599 27.86069552 -13.38701551 23.58761803 -13.4375 19.3125 C-13.47488281 18.12333984 -13.51226562 16.93417969 -13.55078125 15.70898438 C-13.64977893 5.9137138 -13.64977893 5.9137138 -10.6640625 2.86328125 C-6.74928226 0.24754971 -4.70748667 -0.01122166 0 0 Z " fill="#262181" transform="translate(229.0625,83.875)"/>
<path d="M0 0 C5.94 0 11.88 0 18 0 C18 1.98 18 3.96 18 6 C14.37 6 10.74 6 7 6 C7 9.3 7 12.6 7 16 C10.3 16 13.6 16 17 16 C17 17.98 17 19.96 17 22 C13.7 22 10.4 22 7 22 C7 25.3 7 28.6 7 32 C10.63 32 14.26 32 18 32 C18 33.98 18 35.96 18 38 C12.06 38 6.12 38 0 38 C0 25.46 0 12.92 0 0 Z " fill="#221D7E" transform="translate(316,84)"/>
<path d="M0 0 C5.66875172 0.39094839 9.88902756 1.55099237 15 4 C15 5.65 15 7.3 15 9 C13.68 9.33 12.36 9.66 11 10 C10.67 17.26 10.34 24.52 10 32 C3.07 30.02 -3.86 28.04 -11 26 C-9.23488115 21.58720287 -7.79042502 19.32374679 -4.875 15.75 C-0.88022809 10.43803302 -0.26412333 7.51776475 -1 1 C-0.67 0.67 -0.34 0.34 0 0 Z " fill="#459DBF" transform="translate(189,35)"/>
<path d="M0 0 C0.87527344 -0.00257812 1.75054687 -0.00515625 2.65234375 -0.0078125 C5.0625 0.125 5.0625 0.125 8.0625 1.125 C8.0625 3.105 8.0625 5.085 8.0625 7.125 C7.35222656 7.11339844 6.64195312 7.10179688 5.91015625 7.08984375 C4.99105469 7.08082031 4.07195312 7.07179688 3.125 7.0625 C1.75021484 7.04509766 1.75021484 7.04509766 0.34765625 7.02734375 C-1.90343327 6.86550951 -1.90343327 6.86550951 -2.9375 8.125 C-3.37556346 10.53759966 -3.37556346 10.53759966 -2.9375 13.125 C-1.12025198 14.89249104 -1.12025198 14.89249104 1.3125 16.1875 C2.13105469 16.69796875 2.94960938 17.2084375 3.79296875 17.734375 C4.54191406 18.19328125 5.29085938 18.6521875 6.0625 19.125 C8.73358595 21.0143047 9.83867979 21.98437776 10.46875 25.1953125 C10.76259226 29.64702278 10.52693417 31.53834631 7.6875 35.125 C3.80355277 38.08419789 1.85027394 38.26156204 -3 38.25 C-4.62615234 38.25386719 -4.62615234 38.25386719 -6.28515625 38.2578125 C-8.9375 38.125 -8.9375 38.125 -9.9375 37.125 C-9.97830783 35.12541636 -9.98004356 33.12454746 -9.9375 31.125 C-9.15503906 31.13660156 -8.37257813 31.14820312 -7.56640625 31.16015625 C-6.55449219 31.16917969 -5.54257812 31.17820312 -4.5 31.1875 C-3.49066406 31.19910156 -2.48132813 31.21070312 -1.44140625 31.22265625 C1.00271067 31.41112676 1.00271067 31.41112676 2.0625 30.125 C2.59479064 27.73443644 2.59479064 27.73443644 2.0625 25.125 C-0.28758269 23.12529449 -0.28758269 23.12529449 -3.3125 21.5625 C-9.65013765 18.01702571 -9.65013765 18.01702571 -10.9375 14.125 C-11.60048343 7.16367403 -11.60048343 7.16367403 -9.0625 3.1875 C-5.94169899 0.15848726 -4.24256399 -0.01245981 0 0 Z " fill="#231E7F" transform="translate(408.9375,83.875)"/>
<path d="M0 0 C3.66666667 0 7.33333333 0 11 0 C12.03640625 -0.03480469 12.03640625 -0.03480469 13.09375 -0.0703125 C13.8878125 -0.08835938 14.681875 -0.10640625 15.5 -0.125 C16.2940625 -0.14820313 17.088125 -0.17140625 17.90625 -0.1953125 C20 0 20 0 22 2 C22.23046875 4.05859375 22.23046875 4.05859375 22.1875 6.4375 C22.18105469 7.21996094 22.17460937 8.00242188 22.16796875 8.80859375 C22 11 22 11 21 14 C21.88319294 17.15020361 21.88319294 17.15020361 23 20 C21.68 20 20.36 20 19 20 C18.34 17.69 17.68 15.38 17 13 C16.34 13 15.68 13 15 13 C15 15.31 15 17.62 15 20 C10.05 20 5.1 20 0 20 C0 13.4 0 6.8 0 0 Z " fill="#FCE8EC" transform="translate(316,138)"/>
<path d="M0 0 C2.31 0 4.62 0 7 0 C7.62726108 1.54074808 8.2516901 3.08264923 8.875 4.625 C9.39707031 5.91277344 9.39707031 5.91277344 9.9296875 7.2265625 C11.04784192 10.12396993 12.03882518 13.04720169 13 16 C13.27714844 15.01257813 13.55429687 14.02515625 13.83984375 13.0078125 C14.20562432 11.71351203 14.57151549 10.41924281 14.9375 9.125 C15.11990234 8.47402344 15.30230469 7.82304688 15.49023438 7.15234375 C16.88671875 2.2265625 16.88671875 2.2265625 18 0 C20.31 0 22.62 0 25 0 C24.6443396 0.98057373 24.6443396 0.98057373 24.28149414 1.98095703 C17.81971994 19.53235401 17.81971994 19.53235401 16 38 C13.69 38 11.38 38 9 38 C9.020625 37.18402344 9.04125 36.36804688 9.0625 35.52734375 C8.84139029 22.82735505 4.51095221 11.76097054 0 0 Z " fill="#221E7F" transform="translate(362,84)"/>
<path d="M0 0 C1.08410156 -0.00257812 2.16820312 -0.00515625 3.28515625 -0.0078125 C5.9375 0.125 5.9375 0.125 6.9375 1.125 C6.97830783 3.12458364 6.98004356 5.12545254 6.9375 7.125 C6.22722656 7.11339844 5.51695312 7.10179688 4.78515625 7.08984375 C3.86605469 7.08082031 2.94695312 7.07179688 2 7.0625 C0.62521484 7.04509766 0.62521484 7.04509766 -0.77734375 7.02734375 C-3.02843327 6.86550951 -3.02843327 6.86550951 -4.0625 8.125 C-4.1616657 9.74757544 -4.19329777 11.37439831 -4.1953125 13 C-4.19660156 13.98484375 -4.19789063 14.9696875 -4.19921875 15.984375 C-4.19535156 17.02078125 -4.19148438 18.0571875 -4.1875 19.125 C-4.19136719 20.16140625 -4.19523437 21.1978125 -4.19921875 22.265625 C-4.19792969 23.25046875 -4.19664062 24.2353125 -4.1953125 25.25 C-4.19362061 26.61511719 -4.19362061 26.61511719 -4.19189453 28.0078125 C-4.29810009 30.1102848 -4.29810009 30.1102848 -3.0625 31.125 C-1.37641034 31.19705511 0.31250659 31.20886068 2 31.1875 C2.91910156 31.17847656 3.83820313 31.16945313 4.78515625 31.16015625 C5.49542969 31.14855469 6.20570313 31.13695313 6.9375 31.125 C6.98004356 33.12454746 6.97830783 35.12541636 6.9375 37.125 C5.14816124 38.91433876 2.6073379 38.38143059 0.1875 38.4375 C-3.9028345 38.41318172 -5.66927766 38.35630726 -9.25 36.25 C-13.43244819 31.34644005 -12.32529611 25.48572376 -12.375 19.3125 C-12.40400391 18.12333984 -12.43300781 16.93417969 -12.46289062 15.70898438 C-12.47126953 14.56107422 -12.47964844 13.41316406 -12.48828125 12.23046875 C-12.50286377 11.18012451 -12.51744629 10.12978027 -12.5324707 9.04760742 C-11.94645186 5.40333125 -10.59516275 3.75726019 -8.0625 1.125 C-5.31744537 -0.24752731 -3.05922588 -0.00729255 0 0 Z " fill="#2A2683" transform="translate(305.0625,83.875)"/>
<path d="M0 0 C1.22589844 0.01353516 1.22589844 0.01353516 2.4765625 0.02734375 C3.41628906 0.04474609 3.41628906 0.04474609 4.375 0.0625 C0.625 2.0625 0.625 2.0625 -1.625 2.0625 C-0.305 5.0325 1.015 8.0025 2.375 11.0625 C3.365 10.4025 4.355 9.7425 5.375 9.0625 C5.375 10.3825 5.375 11.7025 5.375 13.0625 C8.345 12.0725 11.315 11.0825 14.375 10.0625 C13.715 9.27875 13.055 8.495 12.375 7.6875 C10.375 5.0625 10.375 5.0625 10.375 3.0625 C12.125 3.1875 12.125 3.1875 14.375 4.0625 C17.19659609 7.60964937 18.84345241 10.54434545 19.375 15.0625 C20.365 15.3925 21.355 15.7225 22.375 16.0625 C8.845 16.0625 -4.685 16.0625 -18.625 16.0625 C-18.295 15.0725 -17.965 14.0825 -17.625 13.0625 C-17.625 13.7225 -17.625 14.3825 -17.625 15.0625 C-16.635 15.0625 -15.645 15.0625 -14.625 15.0625 C-14.5940625 13.825 -14.5940625 13.825 -14.5625 12.5625 C-13.23975285 7.62424396 -10.25487382 4.5750107 -6.625 1.0625 C-4.21954362 -0.14022819 -2.67503047 -0.03821472 0 0 Z " fill="#FFE26D" transform="translate(166.625,70.9375)"/>
<path d="M0 0 C2.74483673 1.24765306 4.47294058 2.35315435 6.375 4.6875 C7.34722353 8.28472707 7.10641347 11.44783044 6 15 C3.86439595 17.58861097 2.36385138 18.71069819 -0.93359375 19.41015625 C-4.86979124 19.7003485 -6.65111691 19.23258873 -10 17 C-12.23495494 13.64756759 -12.67920629 11.87083725 -12.43359375 7.93359375 C-11.75194607 4.89381354 -10.19767713 3.13303956 -8 1 C-5.17998673 -0.41000664 -3.12992745 -0.24548451 0 0 Z " fill="#0F60A8" transform="translate(170,170)"/>
<path d="M0 0 C4.08654701 0.30766148 6.41388594 0.50709444 9.63671875 3.1796875 C11.42966936 6.76558871 11.50690007 9.08844207 11.07421875 13.0546875 C9.8865402 16.43500339 9.1759665 16.98685567 6.07421875 19.0546875 C1.606043 19.48709161 -0.83378115 19.58907053 -4.86328125 17.6171875 C-7.3925425 14.47477201 -7.94487233 12.22435539 -8.20703125 8.24609375 C-7.92578125 6.0546875 -7.92578125 6.0546875 -5.55078125 3.0546875 C-4.68453125 2.3946875 -3.81828125 1.7346875 -2.92578125 1.0546875 C-1.92578125 0.0546875 -1.92578125 0.0546875 0 0 Z " fill="#0F60A8" transform="translate(116.92578125,169.9453125)"/>
<path d="M0 0 C0.33 0 0.66 0 1 0 C1.7882006 13.98326254 0.27254146 25.0069514 -5 38 C-5.66 38 -6.32 38 -7 38 C-7.17015625 37.40832031 -7.3403125 36.81664062 -7.515625 36.20703125 C-9.01616973 31.31429763 -10.57224913 27.90054409 -14 24 C-14 23.34 -14 22.68 -14 22 C-16.93720508 20.47700477 -19.9168649 19.19899698 -23 18 C-22.67 16.02 -22.34 14.04 -22 12 C-15.07 13.98 -8.14 15.96 -1 18 C-0.67 12.06 -0.34 6.12 0 0 Z " fill="#8ED1DB" transform="translate(199,48)"/>
<path d="M0 0 C0.66 0 1.32 0 2 0 C1.566875 0.8353125 1.566875 0.8353125 1.125 1.6875 C-2.34331791 8.81682015 -2 11.08240967 -2 20 C6.58 20 15.16 20 24 20 C24 20.33 24 20.66 24 21 C25.28052246 20.99476318 26.56104492 20.98952637 27.88037109 20.98413086 C32.67007741 20.96591375 37.45978072 20.95450737 42.24951172 20.94506836 C44.31527218 20.94006613 46.38102915 20.93326224 48.44677734 20.92456055 C51.43067288 20.91231375 54.41452125 20.90673044 57.3984375 20.90234375 C58.76468765 20.89460182 58.76468765 20.89460182 60.15853882 20.88670349 C66.1626863 20.88618824 72.03807525 21.29264365 78 22 C77.505 23.485 77.505 23.485 77 25 C77 24.34 77 23.68 77 23 C41.69 23 6.38 23 -30 23 C-25.5 19.625 -25.5 19.625 -21.015625 19.70703125 C-20.08105469 19.71669922 -19.14648438 19.72636719 -18.18359375 19.73632812 C-17.21550781 19.76146484 -16.24742188 19.78660156 -15.25 19.8125 C-13.77466797 19.83280273 -13.77466797 19.83280273 -12.26953125 19.85351562 C-9.84579585 19.88881274 -7.42317855 19.93811946 -5 20 C-5.05220703 18.80503906 -5.05220703 18.80503906 -5.10546875 17.5859375 C-5.37753721 6.93640054 -5.37753721 6.93640054 -2 2 C-1.34 1.34 -0.68 0.68 0 0 Z M69 17 C69.33 17.99 69.66 18.98 70 20 C70.66 20.33 71.32 20.66 72 21 C70.68 20.67 69.36 20.34 68 20 C68.33 19.01 68.66 18.02 69 17 Z " fill="#DCEAF3" transform="translate(122,66)"/>
<path d="M0 0 C1.6640625 1.0859375 1.6640625 1.0859375 3 3 C3.3984375 6.25 3.3984375 6.25 3.375 10 C3.38273438 11.2375 3.39046875 12.475 3.3984375 13.75 C3 17 3 17 1.6640625 18.9140625 C-0.94824438 20.61880737 -2.96823995 20.37897001 -6 20 C-7.6640625 18.9140625 -7.6640625 18.9140625 -9 17 C-9.3984375 13.75 -9.3984375 13.75 -9.375 10 C-9.38273438 8.7625 -9.39046875 7.525 -9.3984375 6.25 C-9 3 -9 3 -7.6640625 1.0859375 C-5.05175562 -0.61880737 -3.03176005 -0.37897001 0 0 Z " fill="#E31B41" transform="translate(248,138)"/>
<path d="M0 0 C3 0.125 3 0.125 4 1.125 C4.08726223 2.90571246 4.10699041 4.6898314 4.09765625 6.47265625 C4.09443359 7.55224609 4.09121094 8.63183594 4.08789062 9.74414062 C4.07951172 10.88044922 4.07113281 12.01675781 4.0625 13.1875 C4.05798828 14.32767578 4.05347656 15.46785156 4.04882812 16.64257812 C4.03699747 19.47010351 4.0205141 22.2975264 4 25.125 C1.125 25.75 1.125 25.75 -2 26.125 C-4 24.125 -4 24.125 -4.24291992 21.80249023 C-4.23881104 20.85575439 -4.23470215 19.90901855 -4.23046875 18.93359375 C-4.22853516 17.90685547 -4.22660156 16.88011719 -4.22460938 15.82226562 C-4.21236328 14.74654297 -4.20011719 13.67082031 -4.1875 12.5625 C-4.18685547 11.48291016 -4.18621094 10.40332031 -4.18554688 9.29101562 C-4.13396365 0.17224849 -4.13396365 0.17224849 0 0 Z " fill="#FCFCFD" transform="translate(461,89.875)"/>
<path d="M0 0 C3 0.125 3 0.125 4 1.125 C4.08726223 2.90571246 4.10699041 4.6898314 4.09765625 6.47265625 C4.09443359 7.55224609 4.09121094 8.63183594 4.08789062 9.74414062 C4.07951172 10.88044922 4.07113281 12.01675781 4.0625 13.1875 C4.05798828 14.32767578 4.05347656 15.46785156 4.04882812 16.64257812 C4.03699747 19.47010351 4.0205141 22.2975264 4 25.125 C1.125 25.75 1.125 25.75 -2 26.125 C-4 24.125 -4 24.125 -4.24291992 21.80249023 C-4.23881104 20.85575439 -4.23470215 19.90901855 -4.23046875 18.93359375 C-4.22853516 17.90685547 -4.22660156 16.88011719 -4.22460938 15.82226562 C-4.21236328 14.74654297 -4.20011719 13.67082031 -4.1875 12.5625 C-4.18685547 11.48291016 -4.18621094 10.40332031 -4.18554688 9.29101562 C-4.13396365 0.17224849 -4.13396365 0.17224849 0 0 Z " fill="#FCFCFD" transform="translate(278,89.875)"/>
<path d="M0 0 C1.32 0.33 2.64 0.66 4 1 C5.75 4.5625 5.75 4.5625 7 8 C7.33 5.36 7.66 2.72 8 0 C9.32 0 10.64 0 12 0 C12 6.6 12 13.2 12 20 C10.35 19.67 8.7 19.34 7 19 C5.42141387 16.45163399 4.87482053 13.90072071 4 11 C3.67 13.97 3.34 16.94 3 20 C2.01 20 1.02 20 0 20 C0 13.4 0 6.8 0 0 Z " fill="#E10E36" transform="translate(281,138)"/>
<path d="M0 0 C2.64 0 5.28 0 8 0 C10 2 10 2 10.23046875 4.05859375 C10.20919922 5.23615234 10.20919922 5.23615234 10.1875 6.4375 C10.17783203 7.61119141 10.17783203 7.61119141 10.16796875 8.80859375 C10 11 10 11 9 14 C9.88319294 17.15020361 9.88319294 17.15020361 11 20 C9.68 20 8.36 20 7 20 C6.34 17.69 5.68 15.38 5 13 C4.34 13 3.68 13 3 13 C3 15.31 3 17.62 3 20 C2.01 20 1.02 20 0 20 C0 13.4 0 6.8 0 0 Z " fill="#E00630" transform="translate(328,138)"/>
<path d="M0 0 C1.98 0 3.96 0 6 0 C6.50449402 2.58252893 7.00374301 5.16588703 7.5 7.75 C7.71462891 8.84441406 7.71462891 8.84441406 7.93359375 9.9609375 C8.58888879 13.39343532 9 16.49169491 9 20 C8.01 20 7.02 20 6 20 C5.67 18.35 5.34 16.7 5 15 C3.35 15 1.7 15 0 15 C0 16.65 0 18.3 0 20 C-0.99 20 -1.98 20 -3 20 C-3.48452463 13.05514697 -1.69287491 6.7009632 0 0 Z " fill="#E4284C" transform="translate(269,138)"/>
<path d="M0 0 C5.66875172 0.39094839 9.88902756 1.55099237 15 4 C15 5.65 15 7.3 15 9 C13.68 9.33 12.36 9.66 11 10 C11 10.66 11 11.32 11 12 C7.27091669 11.49800802 3.63852314 10.95792977 0 10 C-0.19412181 8.52168779 -0.38012131 7.04230684 -0.5625 5.5625 C-0.66691406 4.73878906 -0.77132812 3.91507813 -0.87890625 3.06640625 C-0.91886719 2.38449219 -0.95882812 1.70257813 -1 1 C-0.67 0.67 -0.34 0.34 0 0 Z " fill="#1F1A7D" transform="translate(189,35)"/>
<path d="M0 0 C5.65394631 -0.34615998 9.03006806 0.56574762 14 3 C13.01 3.495 13.01 3.495 12 4 C12.66 4.78375 13.32 5.5675 14 6.375 C16 9 16 9 16 11 C11.545 12.485 11.545 12.485 7 14 C6.67 13.01 6.34 12.02 6 11 C5.01 11.66 4.02 12.32 3 13 C0 6.375 0 6.375 0 3 C0.66 2.67 1.32 2.34 2 2 C1.34 1.34 0.68 0.68 0 0 Z " fill="#FFD15E" transform="translate(165,70)"/>
<path d="M0 0 C0.99 0 1.98 0 3 0 C3 2.97 3 5.94 3 9 C4.65 9 6.3 9 8 9 C8 6.03 8 3.06 8 0 C8.99 0 9.98 0 11 0 C11 6.6 11 13.2 11 20 C10.01 20 9.02 20 8 20 C8 17.36 8 14.72 8 12 C6.35 12 4.7 12 3 12 C3 14.64 3 17.28 3 20 C2.01 20 1.02 20 0 20 C0 13.4 0 6.8 0 0 Z " fill="#E0002B" transform="translate(301,138)"/>
<path d="M0 0 C0 0.99 0 1.98 0 3 C-1.65 3.33 -3.3 3.66 -5 4 C-5.33 8.29 -5.66 12.58 -6 17 C-4.68 17 -3.36 17 -2 17 C-2 14.69 -2 12.38 -2 10 C-1.01 10 -0.02 10 1 10 C1 12.97 1 15.94 1 19 C-1.79870027 20.39935013 -3.90498792 20.25265405 -7 20 C-8.66796875 18.921875 -8.66796875 18.921875 -10 17 C-10.3984375 13.75 -10.3984375 13.75 -10.375 10 C-10.38273438 8.7625 -10.39046875 7.525 -10.3984375 6.25 C-10 3 -10 3 -8.70703125 1.07421875 C-5.92995399 -0.67336991 -3.18257122 -0.18014554 0 0 Z " fill="#E2123A" transform="translate(263,138)"/>
<path d="M0 0 C0.99 0 1.98 0 3 0 C3.99 2.97 4.98 5.94 6 9 C5.01 9 4.02 9 3 9 C3.33 9.99 3.66 10.98 4 12 C-1.28 12 -6.56 12 -12 12 C-11.67 11.01 -11.34 10.02 -11 9 C-11 9.66 -11 10.32 -11 11 C-10.01 11 -9.02 11 -8 11 C-7.87625 10.071875 -7.7525 9.14375 -7.625 8.1875 C-7 5 -7 5 -5 2 C-2.9375 1.375 -2.9375 1.375 -1 1 C-0.67 0.67 -0.34 0.34 0 0 Z " fill="#FFCD6B" transform="translate(160,75)"/>
<path d="M0 0 C2.97 0 5.94 0 9 0 C9 0.99 9 1.98 9 3 C7.02 3 5.04 3 3 3 C3 4.98 3 6.96 3 9 C4.65 9 6.3 9 8 9 C8 9.99 8 10.98 8 12 C6.35 12 4.7 12 3 12 C3 13.65 3 15.3 3 17 C4.98 17 6.96 17 9 17 C9 17.99 9 18.98 9 20 C6.03 20 3.06 20 0 20 C0 13.4 0 6.8 0 0 Z " fill="#E0002B" transform="translate(342,138)"/>
<path d="M0 0 C2.97 0 5.94 0 9 0 C9 0.99 9 1.98 9 3 C7.02 3 5.04 3 3 3 C3 4.98 3 6.96 3 9 C4.65 9 6.3 9 8 9 C8 9.99 8 10.98 8 12 C6.35 12 4.7 12 3 12 C3 13.65 3 15.3 3 17 C4.98 17 6.96 17 9 17 C9 17.99 9 18.98 9 20 C6.03 20 3.06 20 0 20 C0 13.4 0 6.8 0 0 Z " fill="#E0002B" transform="translate(316,138)"/>
<path d="M0 0 C1.670625 0.061875 1.670625 0.061875 3.375 0.125 C3.375 1.115 3.375 2.105 3.375 3.125 C1.725 3.455 0.075 3.785 -1.625 4.125 C-1.625 5.115 -1.625 6.105 -1.625 7.125 C-0.635 7.7025 0.355 8.28 1.375 8.875 C4.375 11.125 4.375 11.125 4.9375 14.75 C4.751875 15.86375 4.56625 16.9775 4.375 18.125 C0.7308226 20.5544516 -1.33741272 20.28679575 -5.625 20.125 C-5.295 18.805 -4.965 17.485 -4.625 16.125 C-2.975 16.125 -1.325 16.125 0.375 16.125 C0.375 15.135 0.375 14.145 0.375 13.125 C-0.615 12.5475 -1.605 11.97 -2.625 11.375 C-3.615 10.6325 -4.605 9.89 -5.625 9.125 C-6.125 5.5 -6.125 5.5 -5.625 2.125 C-3.625 0.125 -3.625 0.125 0 0 Z " fill="#E10B34" transform="translate(221.625,137.875)"/>
<path d="M0 0 C0.66 0 1.32 0 2 0 C2 1.32 2 2.64 2 4 C2.84304687 3.7834375 3.68609375 3.566875 4.5546875 3.34375 C5.65039062 3.0653125 6.74609375 2.786875 7.875 2.5 C8.96554688 2.2215625 10.05609375 1.943125 11.1796875 1.65625 C14 1 14 1 16 1 C15.74624791 4.72169726 15.39626084 6.55712024 12.875 9.375 C9.29324926 11.39946781 7.05771094 11.45085677 3 11 C2.01 10.34 1.02 9.68 0 9 C-0.29296875 6.8359375 -0.29296875 6.8359375 -0.1875 4.375 C-0.16042969 3.55773438 -0.13335937 2.74046875 -0.10546875 1.8984375 C-0.05326172 0.95871094 -0.05326172 0.95871094 0 0 Z " fill="#70B634" transform="translate(141,56)"/>
<path d="M0 0 C0.66 0 1.32 0 2 0 C1.566875 0.8353125 1.566875 0.8353125 1.125 1.6875 C-2.34331791 8.81682015 -2 11.08240967 -2 20 C6.58 20 15.16 20 24 20 C24 20.33 24 20.66 24 21 C7.24805543 21.77446352 -9.26165791 22.18906255 -26 21 C-26 20.67 -26 20.34 -26 20 C-19.07 20 -12.14 20 -5 20 C-5.061875 18.14375 -5.12375 16.2875 -5.1875 14.375 C-5.19328635 9.46817209 -4.84098673 6.15221137 -2 2 C-1.34 1.34 -0.68 0.68 0 0 Z " fill="#F9C9BD" transform="translate(122,66)"/>
<path d="M0 0 C1.98 0 3.96 0 6 0 C7 1 7 1 7.1328125 3.6875 C7.12894531 5.3271875 7.12894531 5.3271875 7.125 7 C7.12757813 8.093125 7.13015625 9.18625 7.1328125 10.3125 C7 13 7 13 6 14 C4.02 14 2.04 14 0 14 C0 9.38 0 4.76 0 0 Z " fill="#F5F5F9" transform="translate(484,90)"/>
<path d="M0 0 C1.98 0 3.96 0 6 0 C7 1 7 1 7.1328125 3.25 C7.13023437 4.1575 7.12765625 5.065 7.125 6 C7.12757813 6.9075 7.13015625 7.815 7.1328125 8.75 C7 11 7 11 6 12 C4.02 12 2.04 12 0 12 C0 8.04 0 4.08 0 0 Z " fill="#F5F5F9" transform="translate(346,90)"/>
<path d="M0 0 C1.98 0 3.96 0 6 0 C7 1 7 1 7.1328125 3.25 C7.13023437 4.1575 7.12765625 5.065 7.125 6 C7.12757813 6.9075 7.13015625 7.815 7.1328125 8.75 C7 11 7 11 6 12 C4.02 12 2.04 12 0 12 C0 8.04 0 4.08 0 0 Z " fill="#F5F5F9" transform="translate(249,90)"/>
<path d="M0 0 C1.75 0.125 1.75 0.125 4 1 C6.82159609 4.54714937 8.46845241 7.48184545 9 12 C9.99 12.33 10.98 12.66 12 13 C7.05 13 2.1 13 -3 13 C-1.38405168 10.95880212 0.2856382 8.95927063 2 7 C2.66 7 3.32 7 4 7 C3.01 5.824375 3.01 5.824375 2 4.625 C0 2 0 2 0 0 Z " fill="#FFDD65" transform="translate(177,74)"/>
<path d="M0 0 C0.99 0 1.98 0 3 0 C3 5.61 3 11.22 3 17 C4.98 17 6.96 17 9 17 C9 17.99 9 18.98 9 20 C6.03 20 3.06 20 0 20 C0 13.4 0 6.8 0 0 Z " fill="#E0042E" transform="translate(229,138)"/>
<path d="M0 0 C0.99 0 1.98 0 3 0 C3 6.6 3 13.2 3 20 C1.35 19.67 -0.3 19.34 -2 19 C-2.33 17.02 -2.66 15.04 -3 13 C-2.34 13 -1.68 13 -1 13 C-0.67 8.71 -0.34 4.42 0 0 Z " fill="#E42348" transform="translate(290,138)"/>
<path d="M0 0 C-3.75 2 -3.75 2 -6 2 C-5.01 4.97 -4.02 7.94 -3 11 C-3.99 11.33 -4.98 11.66 -6 12 C-7.25664978 9.09399739 -8 7.20395416 -8 4 C-9.98 4.99 -11.96 5.98 -14 7 C-14 4 -14 4 -12.0625 1.8125 C-7.95142865 -0.62058305 -4.6603705 -0.36551926 0 0 Z " fill="#FFDD61" transform="translate(171,71)"/>
<path d="M0 0 C1.32 0.33 2.64 0.66 4 1 C4 4.96 4 8.92 4 13 C2.68 13.33 1.36 13.66 0 14 C0 9.38 0 4.76 0 0 Z " fill="#FDF6F7" transform="translate(243,141)"/>
<path d="M0 0 C4.75374238 1.63922151 7.84200907 5.48263258 10.8125 9.375 C12.32125911 12.71015172 12.21283447 15.38181404 12 19 C11.34 19.33 10.68 19.66 10 20 C9.92523438 19.43152344 9.85046875 18.86304687 9.7734375 18.27734375 C8.51075041 10.86215194 5.380671 6.75791581 -0.375 2.0625 C-0.91125 1.711875 -1.4475 1.36125 -2 1 C-1.34 0.67 -0.68 0.34 0 0 Z " fill="#F7F2EC" transform="translate(179,67)"/>
<path d="M0 0 C3.78496138 1.51398455 4.0072198 2.0144396 6 6 C1.545 7.485 1.545 7.485 -3 9 C-2.44271087 5.65626525 -1.64826111 2.96687001 0 0 Z " fill="#FF6F07" transform="translate(175,75)"/>
<path d="M0 0 C0.99 0 1.98 0 3 0 C3.99 2.97 4.98 5.94 6 9 C3.03 8.01 0.06 7.02 -3 6 C-2 2 -2 2 0 0 Z " fill="#FF6F07" transform="translate(160,75)"/>
<path d="M0 0 C2.31 0 4.62 0 7 0 C6.49287967 3.71888239 5.88391785 6.73454239 4 10 C1.7448078 7.7448078 1.02276532 5.9952413 0 3 C0 2.01 0 1.02 0 0 Z " fill="#FF6E05" transform="translate(165,73)"/>
<path d="M0 0 C0 0.99 0 1.98 0 3 C-4.29 3.99 -8.58 4.98 -13 6 C-5.46629213 -1.95224719 -5.46629213 -1.95224719 0 0 Z " fill="#FD9F54" transform="translate(123,60)"/>
<path d="M0 0 C0 0.66 0 1.32 0 2 C0.99 2.33 1.98 2.66 3 3 C-1.95 3 -6.9 3 -12 3 C-11 1 -11 1 -8.25 -0.1875 C-4.95578208 -1.01105448 -3.20978295 -0.94405381 0 0 Z " fill="#FFA64F" transform="translate(186,84)"/>
<path d="M0 0 C0.33 1.32 0.66 2.64 1 4 C-2.63 4.66 -6.26 5.32 -10 6 C-4.15384615 0 -4.15384615 0 0 0 Z " fill="#FDA157" transform="translate(116,46)"/>
<path d="M0 0 C0.66 0 1.32 0 2 0 C2.16682272 4.92127034 2.24828052 8.50343896 0 13 C-0.33 13 -0.66 13 -1 13 C-1.02686553 11.02090602 -1.04633375 9.04171029 -1.0625 7.0625 C-1.07410156 5.96035156 -1.08570313 4.85820313 -1.09765625 3.72265625 C-1 1 -1 1 0 0 Z " fill="#4F070E" transform="translate(140,57)"/>
<path d="M0 0 C-0.33 0.99 -0.66 1.98 -1 3 C-3.64 3 -6.28 3 -9 3 C-9 2.01 -9 1.02 -9 0 C-5.52176885 -1.15941038 -3.54104422 -0.70820884 0 0 Z " fill="#FFA737" transform="translate(164,83)"/>
<path d="M0 0 C0.99 0.33 1.98 0.66 3 1 C2.57692877 2.31722179 2.13602514 3.62872664 1.6875 4.9375 C1.44386719 5.66839844 1.20023438 6.39929688 0.94921875 7.15234375 C0 9 0 9 -3 10 C-2.25 3.375 -2.25 3.375 0 0 Z " fill="#FCE3DF" transform="translate(149,75)"/>
<path d="M0 0 C1.32 0.33 2.64 0.66 4 1 C4 2.65 4 4.3 4 6 C2.68 6.33 1.36 6.66 0 7 C0 4.69 0 2.38 0 0 Z " fill="#FDF3F5" transform="translate(331,141)"/>
<path d="M0 0 C-0.28875 0.556875 -0.5775 1.11375 -0.875 1.6875 C-2.06635767 4.02189686 -2.06635767 4.02189686 -2.9375 6.6875 C-3.288125 7.450625 -3.63875 8.21375 -4 9 C-4.99 9.33 -5.98 9.66 -7 10 C-4.54716981 0 -4.54716981 0 0 0 Z " fill="#FDF2EB" transform="translate(124,66)"/>
</svg>
