<svg width="181" height="47" viewBox="0 0 181 47" fill="none" xmlns="http://www.w3.org/2000/svg">
<path d="M102.367 34C100.518 34 98.8188 33.5735 97.2688 32.7204C95.7374 31.8674 94.5141 30.6806 93.599 29.1599C92.7026 27.6208 92.2544 25.8961 92.2544 23.9861C92.2544 22.076 92.7026 20.3607 93.599 18.8401C94.5141 17.3194 95.7374 16.1326 97.2688 15.2796C98.8188 14.4265 100.518 14 102.367 14C104.216 14 105.906 14.4265 107.438 15.2796C108.988 16.1326 110.202 17.3194 111.079 18.8401C111.976 20.3607 112.424 22.076 112.424 23.9861C112.424 25.8961 111.976 27.6208 111.079 29.1599C110.183 30.6806 108.969 31.8674 107.438 32.7204C105.906 33.5735 104.216 34 102.367 34ZM102.367 29.6606C103.936 29.6606 105.187 29.1414 106.121 28.1029C107.073 27.0644 107.55 25.6922 107.55 23.9861C107.55 22.2615 107.073 20.8892 106.121 19.8693C105.187 18.8308 103.936 18.3115 102.367 18.3115C100.78 18.3115 99.5098 18.8215 98.5574 19.8414C97.6236 20.8614 97.1567 22.2429 97.1567 23.9861C97.1567 25.7107 97.6236 27.0923 98.5574 28.1307C99.5098 29.1507 100.78 29.6606 102.367 29.6606Z" fill="#2C3C28"/>
<path d="M134.344 14.2575V34H132.373V18.2346L125.446 34H124.01L117.084 18.2918V34H115.113V14.2575H117.197L124.714 31.3677L132.232 14.2575H134.344Z" fill="#6DA82D"/>
<path d="M148.81 29.2504H139.857L138.139 34H136.056L143.235 14.2575H145.46L152.611 34H150.528L148.81 29.2504ZM148.219 27.5908L144.334 16.7754L140.448 27.5908H148.219Z" fill="#6DA82D"/>
<path d="M164.841 34L159.97 25.6452H156.338V34H154.367V14H160.28C162.476 14 164.137 14.5341 165.263 15.6023C166.408 16.6705 166.981 18.0725 166.981 19.8083C166.981 21.258 166.568 22.4979 165.742 23.5279C164.935 24.5389 163.733 25.1969 162.138 25.5021L167.206 34H164.841ZM156.338 24.0143H160.308C161.847 24.0143 163.001 23.6328 163.771 22.8698C164.559 22.1068 164.954 21.0863 164.954 19.8083C164.954 18.4921 164.578 17.4812 163.827 16.7754C163.076 16.0505 161.894 15.6881 160.28 15.6881H156.338V24.0143Z" fill="#6DA82D"/>
<path d="M181 14V15.6595H175.538V34H173.567V15.6595H168.076V14H181Z" fill="#6DA82D"/>
<path d="M66.8125 17.9031V21.9487H73.2574V25.7094H66.8125V30.0969H74.1017V34H62V14H74.1017V17.9031H66.8125Z" fill="#2C3C28"/>
<path d="M87.6683 34L80.9713 25.1681V34H76.1189V14H80.9713V22.7749L87.6115 14H93.3153L85.5968 23.8006L93.5991 34H87.6683Z" fill="#2C3C28"/>
<path d="M44.4954 31.5729C48.9539 19.9775 43.1683 6.96317 31.5729 2.50463C19.9775 -1.95391 6.96317 3.83168 2.50463 15.4271C-1.95391 27.0225 3.83168 40.0368 15.4271 44.4954C27.0225 48.9539 40.0368 43.1683 44.4954 31.5729Z" fill="#FFFFEA"/>
<path d="M34.0891 23.4981C34.0891 29.3453 29.3492 34.0887 23.4985 34.0887C17.6513 34.0887 12.908 29.3487 12.908 23.4981C12.908 17.6509 17.6479 12.911 23.4985 12.911C29.3457 12.9075 34.0891 17.6509 34.0891 23.4981Z" fill="#FFD379"/>
<path d="M23.4993 34.0887C29.3465 34.0887 34.0898 29.3487 34.0898 23.4981C34.0898 22.5549 33.9566 21.6459 33.7242 20.7779C29.1824 21.6185 24.897 22.8249 21.0114 24.4208C18.4586 23.6348 15.7588 23.0129 12.96 22.5378C12.9326 22.8557 12.9121 23.1769 12.9121 23.5015C12.9121 29.3453 17.6521 34.0887 23.4993 34.0887Z" fill="#D0DB58"/>
<path d="M34.0891 23.4981C34.0891 29.3453 29.3492 34.0887 23.4985 34.0887C17.6513 34.0887 12.908 29.3487 12.908 23.4981C12.908 17.6509 17.6479 12.911 23.4985 12.911C29.3457 12.9075 34.0891 17.6509 34.0891 23.4981Z" stroke="#2C3C28" stroke-width="1.5" stroke-miterlimit="10" stroke-linecap="round" stroke-linejoin="round"/>
<path d="M45.9706 22.7087C45.9569 22.2918 45.933 21.8783 45.8954 21.4682C28.8698 22.1961 13.529 27.3359 5.77148 37.3387C6.77962 38.627 7.92104 39.8095 9.18207 40.8518C10.4397 41.8907 11.8169 42.7894 13.2795 43.5379C14.7354 44.2829 16.2835 44.8775 17.9033 45.291C19.5266 45.7045 21.2216 45.9369 22.9611 45.9779C23.1388 45.9813 23.3165 45.9916 23.4976 45.9916C25.2234 45.9916 26.9014 45.7899 28.5144 45.4243C30.8075 44.9014 32.9707 44.03 34.9357 42.8646C39.0605 40.4246 42.3413 36.703 44.2243 32.2501C44.6412 31.2659 44.9863 30.2441 45.2632 29.195C45.4374 28.5252 45.581 27.8383 45.6937 27.1445C45.7826 26.5977 45.8509 26.0441 45.8988 25.4836C45.9398 25.0018 45.9671 24.5165 45.9774 24.0278C45.9808 23.8501 45.9911 23.6758 45.9911 23.4981C45.9911 23.235 45.9808 22.9718 45.9706 22.7087Z" fill="#7BAB47"/>
<path d="M45.3007 25.0565C45.0068 26.1911 44.6309 27.2915 44.1832 28.3509C42.1533 33.1558 38.6163 37.1644 34.1702 39.7958C32.048 41.0534 29.7207 41.9932 27.2465 42.5536C25.5071 42.9501 23.6993 43.1654 21.8368 43.1654C21.642 43.1654 21.4506 43.1551 21.2592 43.1517C19.3796 43.1073 17.5547 42.8578 15.805 42.4101C14.0587 41.9624 12.391 41.32 10.8224 40.5203C9.24358 39.7138 7.76042 38.7432 6.40371 37.6257C6.23284 37.4822 6.06538 37.3318 5.89793 37.1849C5.85692 37.2361 5.81249 37.2874 5.77148 37.3421C6.77962 38.6304 7.92104 39.8129 9.18207 40.8552C10.4397 41.8941 11.8169 42.7929 13.2795 43.5413C14.7354 44.2863 16.2835 44.8809 17.9033 45.2944C19.5266 45.7079 21.2216 45.9403 22.9611 45.9813C23.1388 45.9847 23.3165 45.995 23.4976 45.995C25.2234 45.995 26.9014 45.7934 28.5144 45.4277C30.8075 44.9048 32.9707 44.0334 34.9357 42.868C39.0605 40.428 42.3413 36.7064 44.2243 32.2536C44.6412 31.2693 44.9863 30.2475 45.2632 29.1984C45.4374 28.5286 45.581 27.8417 45.6937 27.1479C45.7826 26.6011 45.8509 26.0475 45.8988 25.4871C45.9398 25.0052 45.9671 24.5199 45.9774 24.0312C45.9808 23.8535 45.9911 23.6793 45.9911 23.5015C45.9911 23.2384 45.9808 22.9753 45.9706 22.7121C45.9603 22.3943 45.9364 22.0799 45.9125 21.7621C45.8714 22.1277 45.8236 22.49 45.7655 22.8488C45.6425 23.5938 45.4887 24.332 45.3007 25.0565Z" fill="#A0C73A"/>
<path d="M44.2242 32.2467C40.4309 35.401 37.239 39.1909 34.9357 42.8612C39.0605 40.4212 42.3412 36.703 44.2242 32.2467Z" stroke="#2C3C28" stroke-width="1.5412" stroke-miterlimit="10" stroke-linecap="round" stroke-linejoin="round"/>
<path d="M45.8985 25.4837C45.9395 25.0018 45.9669 24.5165 45.9771 24.0278C31.0567 26.6832 18.3029 34.0067 13.2793 43.5344C14.7351 44.2794 16.2832 44.8741 17.9031 45.2876C21.9835 36.8192 32.8406 29.0138 45.8985 25.4837Z" stroke="#2C3C28" stroke-width="1.5412" stroke-miterlimit="10" stroke-linecap="round" stroke-linejoin="round"/>
<path d="M45.977 24.0278C45.9804 23.8501 45.9906 23.6758 45.9906 23.4981C45.9906 23.235 45.9804 22.9719 45.9701 22.7087C29.7374 24.3969 15.4799 30.7567 9.18164 40.8484C10.4392 41.8873 11.8165 42.786 13.2791 43.5344C18.3027 34.0067 31.0565 26.6832 45.977 24.0278Z" stroke="#2C3C28" stroke-width="1.2" stroke-miterlimit="10" stroke-linecap="round" stroke-linejoin="round"/>
<path d="M45.9706 22.7087C45.9569 22.2918 45.933 21.8783 45.8954 21.4682C28.8698 22.1961 13.529 27.3359 5.77148 37.3387C6.77962 38.627 7.92104 39.8095 9.18207 40.8518C15.4804 30.7567 29.7378 24.3935 45.9706 22.7087Z" stroke="#2C3C28" stroke-width="1.2" stroke-miterlimit="10" stroke-linecap="round" stroke-linejoin="round"/>
<path d="M44.2235 32.2467C44.6405 31.2625 44.9856 30.2407 45.2624 29.1915C37.7407 33.3915 31.6577 39.6967 28.5137 45.4209C30.8068 44.898 32.97 44.0265 34.935 42.8612C37.2383 39.1909 40.4302 35.4044 44.2235 32.2467Z" stroke="#2C3C28" stroke-width="1.2" stroke-miterlimit="10" stroke-linecap="round" stroke-linejoin="round"/>
<path d="M45.2635 29.1916C45.4378 28.5217 45.5813 27.8348 45.6941 27.1411C35.1069 31.2796 26.4916 38.8252 22.9648 45.9745C23.1425 45.9779 23.3203 45.9882 23.5014 45.9882C25.2272 45.9882 26.9051 45.7865 28.5181 45.4209C31.6588 39.7001 37.7418 33.395 45.2635 29.1916Z" stroke="#2C3C28" stroke-width="1.2" stroke-miterlimit="10" stroke-linecap="round" stroke-linejoin="round"/>
<path d="M45.6928 27.1445C45.7816 26.5977 45.85 26.0441 45.8978 25.4837C32.8399 29.0173 21.9827 36.8226 17.9023 45.291C19.5256 45.7045 21.2207 45.9369 22.9601 45.9779C26.4903 38.8287 35.1056 31.283 45.6928 27.1445Z" stroke="#2C3C28" stroke-width="1.2" stroke-miterlimit="10" stroke-linecap="round" stroke-linejoin="round"/>
<path d="M1.00586 23.4674C1.00586 23.4776 1.00586 23.4879 1.00586 23.4981C1.00586 23.8262 1.01611 24.1509 1.02978 24.4721C1.04687 24.8275 1.07079 25.1829 1.10155 25.5349C1.13572 25.9211 1.18015 26.3072 1.23483 26.6866C1.29634 27.124 1.36811 27.558 1.45354 27.9852C1.55948 28.5149 1.69276 29.0343 1.83629 29.547C2.03792 30.2783 2.27714 30.9925 2.55053 31.6897C4.57364 36.8602 8.45241 41.0944 13.3735 43.5789C15.0993 44.4503 16.9481 45.1099 18.8926 45.5131C20.3792 45.8241 21.9204 45.9882 23.4993 45.9882C23.6121 45.9882 23.7214 45.9813 23.8342 45.9813C30.1598 45.889 35.8533 43.1859 39.8824 38.9004C32.9314 28.7746 17.7273 23.7989 1.00586 23.4674Z" fill="#A0C73A"/>
<path d="M26.1854 42.8646C24.3673 42.8646 22.5903 42.6767 20.8781 42.3178C18.6397 41.8531 16.5073 41.091 14.5183 40.0897C8.85225 37.2259 4.38227 32.3458 2.05159 26.3927C1.73719 25.5896 1.46038 24.766 1.22799 23.9253C1.18698 23.7749 1.14939 23.6212 1.10838 23.4708C1.07421 23.4708 1.04003 23.4674 1.00586 23.4674C1.00586 23.4776 1.00586 23.4879 1.00586 23.4981C1.00586 23.8262 1.01611 24.1509 1.02978 24.4721C1.04687 24.8275 1.07079 25.1829 1.10155 25.5349C1.13572 25.9211 1.18015 26.3072 1.23483 26.6866C1.29634 27.124 1.36811 27.558 1.45354 27.9852C1.55948 28.5149 1.69276 29.0343 1.83629 29.547C2.03792 30.2783 2.27714 30.9925 2.55053 31.6897C4.57364 36.8602 8.45241 41.0944 13.3735 43.5789C15.0993 44.4503 16.9481 45.1099 18.8926 45.5131C20.3792 45.8241 21.9204 45.9882 23.4993 45.9882C23.6121 45.9882 23.7214 45.9813 23.8342 45.9813C30.1154 45.889 35.7678 43.2235 39.7935 38.9893C35.9421 41.3746 31.4209 42.7826 26.5716 42.8544C26.4451 42.8578 26.3152 42.8646 26.1854 42.8646Z" fill="#D0DB58"/>
<path d="M1.83594 29.5504C2.03757 30.2817 2.27678 30.9959 2.55018 31.6931C7.12952 34.9909 10.916 39.4165 13.3731 43.5823C15.0989 44.4537 16.9478 45.1133 18.8923 45.5165C15.9191 39.8197 9.60714 33.3779 1.83594 29.5504Z" stroke="#2C3C28" stroke-width="1.5412" stroke-miterlimit="10" stroke-linecap="round" stroke-linejoin="round"/>
<path d="M2.55078 31.6897C4.57389 36.8602 8.45266 41.0944 13.3737 43.5789C10.9166 39.4164 7.13012 34.9909 2.55078 31.6897Z" stroke="#2C3C28" stroke-width="1.2" stroke-miterlimit="10" stroke-linecap="round" stroke-linejoin="round"/>
<path d="M1.45691 27.9886C1.56285 28.5183 1.69613 29.0378 1.83966 29.5504C9.61086 33.3813 15.9228 39.8197 18.896 45.5165C20.3826 45.8275 21.9238 45.9916 23.5027 45.9916C23.6154 45.9916 23.7248 45.9847 23.8376 45.9847C20.6218 39.044 11.9791 31.594 1.45691 27.9886Z" stroke="#2C3C28" stroke-width="1.2" stroke-miterlimit="10" stroke-linecap="round" stroke-linejoin="round"/>
<path d="M1.02978 24.4721C1.01611 24.1509 1.00586 23.8262 1.00586 23.4981C1.00586 23.4879 1.00586 23.4776 1.00586 23.4674C17.7273 23.7989 32.9314 28.7746 39.8824 38.9004C35.8533 43.1859 30.1598 45.889 23.8342 45.9813C20.6184 39.044 11.9792 31.594 1.45354 27.9852C1.36811 27.558 1.29634 27.124 1.23483 26.6866M1.02978 24.4721C16.7533 25.6955 30.7271 31.7444 36.4069 41.5899C30.7305 31.7444 16.7533 25.6955 1.02978 24.4721ZM1.02978 24.4721C1.04687 24.8275 1.07079 25.1829 1.10155 25.5349M1.10155 25.5349C15.3522 27.6366 27.713 34.4612 32.3914 43.4661C27.713 34.4578 15.3556 27.6332 1.10155 25.5349ZM1.10155 25.5349C1.13572 25.9211 1.18015 26.3072 1.23483 26.6866M1.23483 26.6866C13.9681 29.6529 24.6886 37.1917 28.3725 45.3423" stroke="#2C3C28" stroke-width="1.2" stroke-miterlimit="10" stroke-linecap="round" stroke-linejoin="round"/>
<path d="M44.4954 31.5729C48.9539 19.9775 43.1683 6.96317 31.5729 2.50463C19.9775 -1.95391 6.96317 3.83168 2.50463 15.4271C-1.95391 27.0225 3.83168 40.0368 15.4271 44.4954C27.0225 48.9539 40.0368 43.1683 44.4954 31.5729Z" stroke="#2C3C28" stroke-width="1.5" stroke-miterlimit="10" stroke-linecap="round" stroke-linejoin="round"/>
</svg>
