<svg width="90" height="90" viewBox="0 0 90 90" fill="none" xmlns="http://www.w3.org/2000/svg">
<path d="M88.3994 39.249C88.3724 39.207 88.3424 39.1619 88.3079 39.1169C87.5714 37.8386 87.1829 36.4237 87.1829 35.0193C87.1829 34.6187 87.2159 34.2076 87.2789 33.771C87.3839 33.1873 87.4364 32.6037 87.4364 32.035C87.4364 28.4956 85.7234 25.1407 82.8553 23.0626C81.3222 21.9524 80.2317 20.3364 79.7787 18.5044C79.7742 18.4714 79.7667 18.4384 79.7592 18.4054C78.7901 14.3768 75.6625 11.247 71.5974 10.2342C71.5659 10.2267 71.5299 10.2192 71.4954 10.2132C69.6608 9.7616 68.0408 8.67081 66.9292 7.1329C64.8517 4.26564 61.499 2.55218 57.9604 2.55218C57.3919 2.55218 56.8069 2.60469 56.2549 2.70672C54.4068 2.9993 52.5497 2.65271 50.8982 1.69545C50.8547 1.66244 50.8097 1.62943 50.7632 1.60243C47.2621 -0.534142 42.7379 -0.534142 39.2368 1.60243C39.2008 1.62643 39.1588 1.65344 39.1198 1.68495C37.8418 2.42015 36.4287 2.80875 35.0247 2.80875C34.6242 2.80875 34.2131 2.77574 33.7766 2.71272C29.5615 1.94752 25.4828 3.80651 23.0693 7.1359C21.9592 8.66931 20.3437 9.7601 18.5121 10.2132C18.4791 10.2177 18.4461 10.2252 18.4131 10.2327C14.3855 11.202 11.2564 14.3303 10.2438 18.3964C10.2363 18.4279 10.2288 18.4639 10.2228 18.4984C9.77133 20.3334 8.68079 21.9539 7.14324 23.0657C4.27664 25.1437 2.56359 28.4971 2.56359 32.0365C2.56359 32.6052 2.61609 33.1903 2.71809 33.7425C3.0121 35.6 2.66409 37.45 1.70706 39.1004C1.66956 39.1484 1.63505 39.198 1.60355 39.252C1.23454 39.8746 0.960032 40.4583 0.742525 41.0329C0.276009 41.7426 0 42.5889 0 43.4996V64.5052C0 66.9869 2.01907 69.0064 4.50015 69.0064H9.1173C9.61532 69.7551 9.99483 70.6013 10.2213 71.5016C10.2273 71.5331 10.2333 71.5631 10.2408 71.5946C11.2099 75.6232 14.3375 78.753 18.4026 79.7658C18.4341 79.7733 18.4701 79.7808 18.5046 79.7868C20.3392 80.2384 21.9592 81.3292 23.0708 82.8671C25.1483 85.7344 28.5009 87.4478 32.0396 87.4478C32.6081 87.4478 33.1931 87.3953 33.7451 87.2933C35.5977 87.0037 37.4517 87.3473 39.1018 88.3045C39.1453 88.3376 39.1918 88.3706 39.2368 88.3976C40.9874 89.4659 42.9944 90 45 90C47.0056 90 49.0126 89.4659 50.7632 88.3976C50.7992 88.3736 50.8412 88.3466 50.8802 88.315C52.1582 87.5798 53.5713 87.1913 54.9753 87.1913C55.3758 87.1913 55.7869 87.2243 56.2234 87.2873C60.437 88.051 64.5172 86.1935 66.9307 82.8641C68.0408 81.3307 69.6563 80.2399 71.4879 79.7868C71.5209 79.7823 71.5539 79.7748 71.5869 79.7673C75.6145 78.798 78.7436 75.6697 79.7562 71.6036C79.7637 71.5721 79.7712 71.5406 79.7772 71.5076C80.0022 70.6058 80.3832 69.7566 80.8827 69.0064H85.4998C87.9809 69.0064 90 66.9869 90 64.5052V43.4996C90 42.5889 89.724 41.7426 89.2575 41.0329C89.04 40.4583 88.7655 39.8746 88.3964 39.252L88.3994 39.249ZM8.9043 25.4933C11.0449 23.9449 12.5554 21.6793 13.1614 19.1136C13.1659 19.0896 13.1719 19.0656 13.1764 19.0401C13.9295 16.1293 16.166 13.8862 19.0386 13.166C19.0686 13.16 19.0971 13.154 19.1256 13.148C21.6907 12.5418 23.9558 11.0294 25.5023 8.89137C27.0189 6.79831 29.464 5.54998 32.0426 5.54998C32.4326 5.54998 32.8376 5.58599 33.2951 5.66851C33.9281 5.76154 34.4771 5.80505 35.0262 5.80505C37.0077 5.80505 38.9908 5.2499 40.7579 4.19962C40.8029 4.17261 40.8509 4.1396 40.8989 4.10359C43.3994 2.6257 46.5855 2.6242 49.0891 4.09309C49.1371 4.1306 49.1866 4.16511 49.2406 4.19662C51.5012 5.55448 54.1638 6.07362 56.7604 5.66251C57.1669 5.58749 57.5734 5.55148 57.9634 5.55148C60.5435 5.55148 62.9886 6.79981 64.5022 8.89137C66.0502 11.0309 68.3153 12.5433 70.8804 13.1495C70.9044 13.154 70.9284 13.16 70.9539 13.1645C73.8655 13.9177 76.1065 16.1548 76.8266 19.0281C76.8326 19.0581 76.8386 19.0866 76.8446 19.1151C77.4506 21.6808 78.9611 23.9464 81.1002 25.4933C83.1928 27.0102 84.4408 29.4559 84.4408 32.035C84.4408 32.4251 84.4048 32.8303 84.3223 33.2879C84.2293 33.921 84.1858 34.4702 84.1858 35.0193C84.1858 36.3697 84.4618 37.7141 84.9583 38.9954H80.4597C77.5706 21.8038 62.5806 8.9874 45.0045 8.9874C27.4284 8.9874 12.4354 21.8038 9.54632 38.9954H5.07017C5.76919 37.1709 5.9852 35.1874 5.67619 33.2369C5.60119 32.8303 5.56519 32.4236 5.56519 32.0335C5.56519 29.4529 6.81323 27.0072 8.9043 25.4933ZM38.3908 38.9954C34.6137 38.9954 31.7411 38.0126 29.8495 36.0756C27.9849 34.1656 27.0294 31.3269 27.0054 27.6014C36.0207 27.8114 39.5308 32.5737 40.8779 36.7418C40.6904 37.6135 40.5749 38.3862 40.5073 38.9969H38.3923L38.3908 38.9954ZM61.4991 23.9944C61.5186 28.8992 60.281 32.6562 57.8179 35.1709C55.3308 37.7081 51.5537 38.9954 46.5946 38.9954H43.5179C44.016 34.9443 46.7296 24.2105 61.4991 23.9944ZM59.96 37.2714C63.0861 34.0816 64.6132 29.4378 64.4931 23.4693C64.4661 22.1069 63.3771 20.9966 62.0646 20.9921H61.9581C55.2663 20.9921 49.9562 22.9036 46.1745 26.6771C44.3445 28.5031 43.0994 30.5436 42.2474 32.4882C39.9868 28.6276 35.4597 24.5946 26.3859 24.5946C25.0808 24.5751 24.0113 25.5938 24.0113 26.8632C23.8958 31.7395 25.1378 35.546 27.7044 38.1747C27.9894 38.4673 28.2939 38.7388 28.609 38.9984H12.5899C15.4415 23.4918 29.062 11.9912 45.003 11.9912C60.944 11.9912 74.5645 23.4918 77.4161 38.9984H57.8659C58.619 38.4838 59.327 37.9196 59.9615 37.2744L59.96 37.2714ZM76.8461 70.8744C76.8386 70.8999 76.8341 70.9269 76.8281 70.9539C76.075 73.8662 73.8385 76.1093 70.9659 76.8295C70.9359 76.8355 70.9074 76.8415 70.8789 76.8475C68.3138 77.4537 66.0487 78.9661 64.5022 81.1041C62.9856 83.1972 60.5405 84.4455 57.9619 84.4455C57.5719 84.4455 57.1669 84.4095 56.7094 84.327C56.0764 84.234 55.5274 84.1905 54.9783 84.1905C52.9968 84.1905 51.0137 84.7456 49.2466 85.7959C49.2016 85.8229 49.1536 85.8559 49.1056 85.8919C46.6066 87.3728 43.4204 87.3743 40.9154 85.9024C40.8674 85.8649 40.8179 85.8304 40.7639 85.7989C38.5033 84.4425 35.8407 83.9204 33.2441 84.333C32.8376 84.408 32.4311 84.444 32.0411 84.444C29.461 84.444 27.0159 83.1957 25.5023 81.1041C23.9543 78.9646 21.6892 77.4522 19.1241 76.846C19.1001 76.8415 19.0761 76.8355 19.0506 76.831C16.139 76.0778 13.898 73.8407 13.1779 70.9674C13.1719 70.9359 13.1659 70.9044 13.1569 70.8744C13.0009 70.2292 12.7744 69.6066 12.5104 69.0049H18.2061C25.0103 76.6374 34.7292 81.0081 45 81.0081C55.2708 81.0081 64.9897 76.6374 71.7939 69.0049H77.4896C77.2256 69.6081 76.9991 70.2292 76.8431 70.8744H76.8461ZM22.3717 69.0049H67.6328C61.5561 74.7604 53.4828 78.0073 45.0015 78.0073C36.5202 78.0073 28.4484 74.7604 22.3717 69.0049ZM87.0044 64.5037C87.0044 65.3319 86.3324 66.0041 85.5043 66.0041H4.50015C3.67212 66.0041 3.0001 65.3319 3.0001 64.5037V43.4981C3.0001 42.6699 3.67212 41.9977 4.50015 41.9977H85.5028C86.3309 41.9977 87.0029 42.6699 87.0029 43.4981L87.0044 64.5037Z" fill="#629D23"/>
<path d="M12.0004 46.4974C9.51932 46.4974 7.50025 48.5169 7.50025 50.9986V57.0002C7.50025 59.4819 9.51932 61.5014 12.0004 61.5014C14.4815 61.5014 16.5005 59.4819 16.5005 57.0002V50.9986C16.5005 48.5169 14.4815 46.4974 12.0004 46.4974ZM13.5004 57.0002C13.5004 57.8284 12.8284 58.5006 12.0004 58.5006C11.1724 58.5006 10.5003 57.8284 10.5003 57.0002V50.9986C10.5003 50.1704 11.1724 49.4982 12.0004 49.4982C12.8284 49.4982 13.5004 50.1704 13.5004 50.9986V57.0002Z" fill="#629D23"/>
<path d="M24.0008 46.4974H21.0007C20.1712 46.4974 19.5006 47.1681 19.5006 47.9978V60.001C19.5006 60.8307 20.1712 61.5014 21.0007 61.5014C21.8302 61.5014 22.5007 60.8307 22.5007 60.001V55.4998H24.0008C24.8288 55.4998 25.5008 56.172 25.5008 57.0002V60.001C25.5008 60.8307 26.1714 61.5014 27.0009 61.5014C27.8304 61.5014 28.5009 60.8307 28.5009 60.001V57.0002C28.5009 55.8434 28.0494 54.7976 27.3309 53.9994C28.0509 53.2012 28.5009 52.1554 28.5009 50.9986C28.5009 48.5169 26.4819 46.4974 24.0008 46.4974ZM22.5007 52.499V49.4982H24.0008C24.8288 49.4982 25.5008 50.1704 25.5008 50.9986C25.5008 51.8268 24.8288 52.499 24.0008 52.499H22.5007Z" fill="#629D23"/>
<path d="M48.0016 46.4974C45.5205 46.4974 43.5014 48.5169 43.5014 50.9986V60.001C43.5014 60.8307 44.172 61.5014 45.0015 61.5014C45.831 61.5014 46.5015 60.8307 46.5015 60.001V57.0002H49.5016V60.001C49.5016 60.8307 50.1722 61.5014 51.0017 61.5014C51.8312 61.5014 52.5017 60.8307 52.5017 60.001V50.9986C52.5017 48.5169 50.4827 46.4974 48.0016 46.4974ZM46.5015 53.9994V50.9986C46.5015 50.1704 47.1736 49.4982 48.0016 49.4982C48.8296 49.4982 49.5016 50.1704 49.5016 50.9986V53.9994H46.5015Z" fill="#629D23"/>
<path d="M37.5012 49.4982C37.5012 50.3279 38.1718 50.9986 39.0013 50.9986C39.8308 50.9986 40.5014 50.3279 40.5014 49.4982C40.5014 47.8433 39.1558 46.4974 37.5012 46.4974H34.5011C32.8466 46.4974 31.501 47.8433 31.501 49.4982V58.5006C31.501 60.1555 32.8466 61.5014 34.5011 61.5014H37.5012C39.1558 61.5014 40.5014 60.1555 40.5014 58.5006V55.4998C40.5014 54.6701 39.8308 53.9994 39.0013 53.9994H37.5012C36.6717 53.9994 36.0012 54.6701 36.0012 55.4998C36.0012 56.3295 36.6717 57.0002 37.5012 57.0002V58.5006H34.5011V49.4982H37.5012Z" fill="#629D23"/>
<path d="M63.0021 46.4974C62.1726 46.4974 61.502 47.1681 61.502 47.9978V53.6453L58.3444 47.3271C58.0324 46.703 57.3289 46.3804 56.6584 46.5379C55.9819 46.6985 55.5018 47.3031 55.5018 47.9993V60.0025C55.5018 60.8322 56.1724 61.5029 57.0019 61.5029C57.8314 61.5029 58.5019 60.8322 58.5019 60.0025V54.355L61.6596 60.6732C61.9176 61.1908 62.4426 61.5029 63.0021 61.5029C63.1161 61.5029 63.2316 61.4894 63.3456 61.4639C64.0221 61.3033 64.5022 60.6987 64.5022 60.0025V47.9993C64.5022 47.1696 63.8316 46.4974 63.0021 46.4974Z" fill="#629D23"/>
<path d="M69.0023 46.4974C68.1728 46.4974 67.5023 47.1681 67.5023 47.9978V60.001C67.5023 60.8307 68.1728 61.5014 69.0023 61.5014C69.8318 61.5014 70.5023 60.8307 70.5023 60.001V47.9978C70.5023 47.1681 69.8318 46.4974 69.0023 46.4974Z" fill="#629D23"/>
<path d="M78.0026 49.4982C78.8306 49.4982 79.5026 50.1704 79.5026 50.9986C79.5026 51.8268 80.1732 52.499 81.0027 52.499C81.8322 52.499 82.5027 51.8283 82.5027 50.9986C82.5027 48.5169 80.4837 46.4974 78.0026 46.4974C75.5215 46.4974 73.5024 48.5169 73.5024 50.9986V57.0002C73.5024 59.4819 75.5215 61.5014 78.0026 61.5014C80.4837 61.5014 82.5027 59.4819 82.5027 57.0002C82.5027 56.1705 81.8322 55.4998 81.0027 55.4998C80.1732 55.4998 79.5026 56.1705 79.5026 57.0002C79.5026 57.8299 78.8306 58.5006 78.0026 58.5006C77.1746 58.5006 76.5025 57.8284 76.5025 57.0002V50.9986C76.5025 50.1704 77.1746 49.4982 78.0026 49.4982Z" fill="#629D23"/>
</svg>
