<svg width="87" height="90" viewBox="0 0 87 90" fill="none" xmlns="http://www.w3.org/2000/svg">
<path d="M82.1942 46.1658C81.8321 45.4248 81.8321 44.5751 82.1942 43.8344L85.5509 36.9676C87.4197 33.1442 85.939 28.5871 82.1798 26.5926L75.4281 23.0102C74.6997 22.6238 74.2003 21.9362 74.0577 21.1242L72.7373 13.5958C72.002 9.40417 68.1246 6.58748 63.9117 7.18355L56.3439 8.25404C55.5271 8.36936 54.7194 8.10674 54.1268 7.53352L48.6335 2.21937C45.5748 -0.739701 40.7831 -0.739877 37.7245 2.21937L32.2311 7.53405C31.6383 8.10744 30.8306 8.36953 30.0139 8.25457L22.4461 7.18408C18.2318 6.58766 14.3559 9.40469 13.6206 13.5963L12.3002 21.1244C12.1576 21.9365 11.6582 22.624 10.93 23.0105L4.17827 26.5929C0.419059 28.5873 -1.06171 33.1447 0.807179 36.9681L4.16368 43.8347C4.52579 44.5757 4.52579 45.4254 4.16368 46.1661L0.807003 53.0327C-1.06188 56.8561 0.418883 61.4132 4.1781 63.4078L10.9298 66.9901C11.6582 67.3765 12.1576 68.0641 12.3002 68.8761L13.6206 76.4045C14.29 80.2203 17.5619 82.8964 21.3224 82.896C21.6927 82.896 22.0686 82.87 22.4463 82.8166L30.0141 81.7461C30.8303 81.6303 31.6385 81.8934 32.2312 82.4666L37.7245 87.7808C39.2541 89.2605 41.2162 90.0002 43.1789 90C45.1412 89.9998 47.1044 89.2601 48.6334 87.7808L54.1268 82.4666C54.7195 81.8934 55.5274 81.6315 56.3439 81.7461L63.9117 82.8166C68.1266 83.4128 72.002 80.596 72.7373 76.4044L74.0579 68.8763C74.2004 68.0642 74.6998 67.3767 75.4281 66.9901L82.1798 63.4078C85.939 61.4134 87.4197 56.8559 85.5509 53.0326L82.1942 46.1658ZM79.7468 58.8222L72.9951 62.4046C70.8425 63.547 69.3662 65.5786 68.9452 67.9791L67.6247 75.5073C67.376 76.9255 66.0649 77.8781 64.6388 77.6768L57.0709 76.6063C54.6575 76.2644 52.2694 77.0412 50.5177 78.7355L45.0243 84.0495C43.9896 85.0504 42.3684 85.0504 41.3334 84.0495L35.8402 78.7354C34.3597 77.3033 32.4244 76.5272 30.404 76.5272C30.0338 76.5272 29.6606 76.5532 29.2869 76.6061L21.7191 77.6766C20.2942 77.8781 18.982 76.9254 18.7331 75.5072L17.4125 67.9787C16.9913 65.5783 15.5152 63.5465 13.3624 62.4044L6.61071 58.822C5.33877 58.1472 4.8378 56.6055 5.47007 55.3119L8.82675 48.4451C9.8969 46.2556 9.8969 43.7444 8.82675 41.5549L5.47007 34.6881C4.8378 33.3945 5.33877 31.8528 6.61071 31.1779L13.3624 27.5956C15.515 26.4532 16.9913 24.4215 17.4123 22.0211L18.7328 14.4928C18.9817 13.0746 20.2927 12.1219 21.7188 12.3233L29.2866 13.3938C31.6991 13.7354 34.0882 12.959 35.8398 11.2646L41.3333 5.95046C42.3679 4.94957 43.9891 4.94957 45.0241 5.95046L50.5174 11.2646C52.269 12.9591 54.6577 13.7354 57.0706 13.3938L64.6384 12.3233C66.0635 12.1217 67.3756 13.0746 67.6244 14.4928L68.9448 22.0212C69.366 24.4217 70.8422 26.4535 72.9949 27.5956L79.7466 31.1779C81.0186 31.8528 81.5195 33.3945 80.8873 34.6881L77.5306 41.5547C76.4604 43.744 76.4604 46.2556 77.5306 48.4449L80.8873 55.3115C81.5197 56.6055 81.0187 58.1474 79.7468 58.8222Z" fill="#629D23"/>
<path d="M62.1427 26.036C61.1293 25.0225 59.4858 25.0225 58.4722 26.036L24.2148 60.2937C23.2013 61.3072 23.2013 62.9506 24.2148 63.9641C24.7216 64.4709 25.3859 64.7243 26.05 64.7243C26.714 64.7243 27.3785 64.471 27.8851 63.9641L62.1425 29.7067C63.1564 28.6929 63.1564 27.0498 62.1427 26.036Z" fill="#629D23"/>
<path d="M32.7972 21.6416C27.5499 21.6416 23.2807 25.9107 23.2807 31.1581C23.2807 36.4054 27.5499 40.6746 32.7972 40.6746C38.0446 40.6746 42.3137 36.4054 42.3137 31.1581C42.3137 25.9107 38.0446 21.6416 32.7972 21.6416ZM32.7972 35.4837C30.4121 35.4837 28.4717 33.5432 28.4717 31.1579C28.4717 28.7728 30.4121 26.8323 32.7972 26.8323C35.1824 26.8323 37.123 28.7728 37.123 31.1579C37.1228 33.5432 35.1824 35.4837 32.7972 35.4837Z" fill="#629D23"/>
<path d="M53.5603 49.3257C48.3129 49.3257 44.0438 53.5949 44.0438 58.8422C44.0438 64.0896 48.3129 68.3588 53.5603 68.3588C58.8076 68.3588 63.0768 64.0896 63.0768 58.8422C63.0768 53.5949 58.8076 49.3257 53.5603 49.3257ZM53.5603 63.1678C51.1751 63.1678 49.2345 61.2274 49.2345 58.8422C49.2345 56.4571 51.175 54.5167 53.5603 54.5167C55.9454 54.5167 57.8858 56.4571 57.8858 58.8422C57.8858 61.2274 55.9454 63.1678 53.5603 63.1678Z" fill="#629D23"/>
</svg>
