<svg width="90" height="90" viewBox="0 0 90 90" fill="none" xmlns="http://www.w3.org/2000/svg">
<path d="M88.6477 32.459H47.2787C46.3923 32.459 45.8013 33.0492 45.8013 33.9344V43.8197L42.1076 42.9344L38.1185 38.9508C42.5509 34.8197 42.8464 26.1148 42.8464 23.6066C48.313 23.6066 52.1544 22.1311 53.6318 19.4754C54.2228 18.2951 54.6661 16.377 53.0408 13.8689C51.4156 11.5082 49.3472 10.3279 46.54 10.3279C46.3923 10.3279 41.2212 10.3279 41.2212 10.3279C40.7779 7.67213 39.005 2.06557 32.0609 0.442623C30.5834 0.147541 28.515 0 28.0718 0C12.7062 0 10.3422 7.37705 10.3422 11.8033V19.1803C10.3422 20.2131 10.7855 21.3934 11.6719 22.2787C10.9332 23.1639 10.3422 24.6393 10.3422 26.5574C10.3422 30.2459 12.8539 31.8689 15.0701 32.3115C15.8088 34.5246 16.8431 36.1475 17.8773 37.4754L12.4107 42.9344C11.2287 44.2623 12.7062 45.5902 12.7062 45.5902L6.35308 51.9344C5.7621 52.6721 0 58.5738 0 63.4426C0 63.7377 -1.43103e-07 63.8853 0.147746 64.0328L7.53505 78.7869C7.6828 79.2295 8.12603 79.3771 8.42153 79.5246C8.56927 79.5246 9.89899 79.9672 11.8197 79.9672C11.8197 80.1148 11.6719 88.3771 11.6719 88.3771C11.6719 89.2623 12.2629 89.8525 13.1494 89.8525C14.0359 89.8525 14.6269 89.2623 14.6269 88.3771V84.2459C16.8431 86.9016 20.389 89.8525 24.9691 89.8525C29.5492 89.8525 37.9707 86.9016 45.3581 84.2459C46.6878 83.8033 47.8697 83.3607 49.0517 82.918C49.3472 82.7705 49.6427 82.7705 50.0859 82.623V88.5246C50.0859 89.4098 50.6769 90 51.5634 90C52.4499 90 53.0408 89.4098 53.0408 88.5246V81.8852C55.7003 81.2951 58.212 81 60.4282 81.1475H70.7704C73.2821 81.1475 76.6802 80.2623 77.7144 77.6066C78.0099 76.8689 78.1577 76.1311 78.1577 75.2459H88.4999C89.3864 75.2459 89.9774 74.6557 89.9774 73.7705V33.9344C90.1251 33.0492 89.5341 32.459 88.6477 32.459ZM72.3956 35.4098V43.377L68.5542 41.459C68.4064 41.3115 68.2587 41.3115 67.9632 41.3115C67.6677 41.3115 67.52 41.3115 67.3722 41.459L63.5308 43.377V35.4098H72.3956ZM29.2537 43.5246C29.106 43.2295 28.3673 42.7869 28.3673 42.7869C30.1402 42.7869 31.6177 42.4918 33.0951 42.0492L32.5041 43.8197L31.0267 47.6557C31.0267 47.6557 29.4015 43.5246 29.2537 43.5246ZM36.4933 41.459L39.596 44.5574L38.1185 47.3607L35.6068 43.9672L36.4933 41.459ZM39.1527 13.2787C37.823 14.3115 36.641 15.6393 35.7546 16.8197C33.2429 20.5082 31.0267 20.6557 31.0267 20.6557H23.1961C23.7871 20.0656 24.3781 19.3279 24.8213 18.5902C26.5943 15.9344 29.8447 13.2787 32.5041 13.2787H39.1527ZM50.5292 15.6393C51.2679 16.6721 51.4156 17.5574 50.9724 18.1475C50.3814 19.3279 47.8697 20.6557 42.8464 20.6557H42.6986C42.4031 18 41.9599 16.082 41.6644 15.0492C43.2896 14.0164 44.9148 13.2787 46.54 13.2787C48.1652 13.2787 49.4949 14.0164 50.5292 15.6393ZM13.2971 11.8033C13.2971 6.4918 17.5818 4.27869 22.4574 3.39344C19.9457 6.04918 19.207 9.44262 19.207 11.8033C19.207 12.6885 19.798 13.2787 20.6845 13.2787C21.4232 13.2787 22.1619 12.6885 22.1619 11.8033C22.1619 10.918 22.4574 3.83607 29.697 3.09836C36.05 3.68852 37.823 8.11475 38.2662 10.3279H32.5041C28.515 10.3279 24.5259 13.5738 22.4574 16.8197C19.9457 20.5082 17.7295 20.6557 17.7295 20.6557H14.7746C13.5926 20.6557 13.2971 19.918 13.2971 19.1803V11.8033ZM16.2521 29.5082C15.8088 29.5082 13.2971 29.3607 13.2971 26.5574C13.2971 23.9016 14.4791 23.6066 14.7746 23.6066H31.0267C31.4699 23.6066 34.8681 23.459 38.1185 18.5902C38.414 18.1475 38.7095 17.7049 39.1527 17.2623C39.4482 18.5902 39.8914 20.8033 39.8914 23.7541C39.8914 23.9016 40.4824 32.0164 36.1978 36.7377C34.2771 38.8033 31.4699 39.8361 28.0718 39.8361C27.924 39.8361 20.2412 39.6885 17.7295 30.541C17.434 29.9508 16.8431 29.5082 16.2521 29.5082ZM19.3547 40.2787L25.8556 44.5574L21.8664 49.5738L15.3656 44.2623L19.3547 40.2787ZM2.95492 63.1475C3.25041 60.0492 6.94407 55.623 8.42153 54.1475L14.9224 47.6557L21.1277 52.8197C21.4232 53.1148 21.7187 53.1148 22.0142 53.1148H22.1619C22.6052 53.1148 22.9006 52.8197 23.1961 52.5246L27.4808 47.0656L29.5492 52.082C29.8447 52.6721 30.2879 52.9672 30.8789 52.9672C31.4699 52.9672 32.0609 52.6721 32.2086 52.082L34.1293 47.2131L36.9365 51.0492C37.232 51.4918 37.6753 51.6393 38.2662 51.6393C38.7095 51.6393 39.1527 51.3443 39.4482 50.9016L41.8121 46.0328L45.5058 46.918V70.3771C43.2896 71.1148 40.6302 72 37.823 72.8852C35.6068 73.623 33.3906 74.3607 31.3222 75.0984C28.8105 75.9836 25.8556 74.9508 24.5259 72.5902L18.7638 62.7049C18.3205 61.9672 17.434 61.8197 16.6953 62.2623C15.9566 62.7049 15.8088 63.5902 16.2521 64.3279L20.389 71.1148C18.025 78.0492 11.6719 77.459 9.75124 77.0164L2.95492 63.1475ZM75.055 76.4262C74.6118 77.6066 72.5433 78.1967 70.9181 78.1967H60.7236C55.848 77.9016 50.8247 79.3771 48.313 80.2623C47.131 80.7049 45.8013 81.1475 44.6193 81.5902C37.6753 83.9508 29.2537 87.0492 25.1168 87.0492C19.9457 87.0492 16.2521 81.7377 15.0701 79.8197C17.5818 79.2295 20.389 77.9016 22.4574 74.3607C24.0826 76.8689 26.8898 78.3443 29.8447 78.3443C30.7312 78.3443 31.6177 78.1967 32.5041 77.9016C34.4248 77.3115 36.641 76.5738 39.005 75.6885C45.5058 73.4754 53.4841 70.8197 55.5525 70.8197H65.8948C66.338 70.8197 67.2245 71.1148 67.3722 72.2951H63.5308C62.6443 72.2951 62.0534 72.8852 62.0534 73.7705C62.0534 74.6557 62.6443 75.2459 63.5308 75.2459C63.5308 75.2459 74.7595 75.3934 75.3505 75.3934C75.3505 75.6885 75.2028 76.1311 75.055 76.4262ZM87.1702 72.2951H70.3271C70.1794 69.0492 67.6677 67.8689 65.8948 67.8689H55.5525C54.2228 67.8689 52.0066 68.459 48.7562 69.3443V35.4098H60.5759V45.7377C60.5759 46.1803 60.8714 46.7705 61.3146 47.0656C61.7579 47.3607 62.3488 47.3607 62.7921 47.0656L68.1109 44.4098L73.4298 47.0656C73.4298 47.2131 73.5776 47.2131 73.873 47.2131C74.1685 47.2131 74.464 47.2131 74.6118 47.0656C75.055 46.7705 75.3505 46.3279 75.3505 45.7377V35.4098H87.1702V72.2951Z" fill="#629D23"/>
<path d="M60.5759 61.9672H54.6661C53.7796 61.9672 53.1886 62.5574 53.1886 63.4426C53.1886 64.3279 53.7796 64.918 54.6661 64.918H60.5759C61.4624 64.918 62.0534 64.3279 62.0534 63.4426C62.0534 62.5574 61.4624 61.9672 60.5759 61.9672Z" fill="#629D23"/>
<path d="M54.6661 60.4918H57.621C58.5075 60.4918 59.0984 59.9016 59.0984 59.0164C59.0984 58.1311 58.5075 57.541 57.621 57.541H54.6661C53.7796 57.541 53.1886 58.1311 53.1886 59.0164C53.1886 59.9016 53.7796 60.4918 54.6661 60.4918Z" fill="#629D23"/>
</svg>
