<svg width="16" height="17" viewBox="0 0 16 17" fill="none" xmlns="http://www.w3.org/2000/svg">
<path d="M7.4375 5C7.21875 4.96875 7.03125 4.78125 7 4.5625C7 4.5 6.8125 2.78125 7.78125 1.8125C8.8125 0.8125 10.5312 1.03125 10.5312 1.03125C10.75 1.0625 10.9375 1.25 10.9688 1.46875C10.9688 1.5625 11.1562 3.25 10.1875 4.21875C9.5 4.90625 8.4375 5.03125 7.875 5.03125C7.59375 5.03125 7.4375 5 7.4375 5ZM8.5 2.53125C8.125 2.90625 8 3.5625 8 4.03125C8.375 4 9.0625 3.9375 9.46875 3.5C9.84375 3.125 9.96875 2.46875 9.96875 2.03125C9.59375 2.03125 8.90625 2.125 8.5 2.53125ZM11.9688 5.0625C14.5 5.5 15.3125 8.9375 14.875 11.4688C14.4375 14 12.9375 17 9.96875 17C9.59375 17 9.21875 16.875 8.90625 16.6875C8.625 16.5312 8.3125 16.4688 8 16.4688C7.6875 16.4688 7.34375 16.5312 7.0625 16.6875C6.75 16.875 6.375 17 6 17C3 17 1.53125 14 1.09375 11.4688C0.65625 8.9375 1.46875 5.5 4 5.0625C4.15625 5.03125 4.3125 5.03125 4.46875 5.03125C5.59375 5.03125 7.1875 5.5625 7.96875 6.03125C8.78125 5.5625 10.375 5.03125 11.5 5.03125C11.6562 5.03125 11.8125 5.03125 11.9688 5.0625ZM13.875 11.3125C14.0938 10.1562 13.9688 8.84375 13.5938 7.84375C13.3125 7.125 12.7812 6.21875 11.7812 6.03125C10.875 5.875 9.0625 6.5625 8.46875 6.875C8.3125 6.96875 8.15625 7.03125 8 7.03125C7.8125 7.03125 7.65625 6.96875 7.5 6.875C6.875 6.53125 5.09375 5.875 4.1875 6.03125C3.1875 6.21875 2.65625 7.125 2.375 7.84375C2 8.84375 1.875 10.1562 2.09375 11.3125C2.21875 12.0938 3.0625 16.0312 6 16.0312C6.5 16.0312 6.84375 15.4688 7.96875 15.4688C9.125 15.4688 9.46875 16.0312 9.96875 16.0312C12.9062 16.0312 13.75 12.0938 13.875 11.3125Z" fill="#2C3C28"/>
</svg>
