<svg width="17" height="16" viewBox="0 0 17 16" fill="none" xmlns="http://www.w3.org/2000/svg">
<path d="M10.7188 3.625C11 3.34375 11.625 3.46875 12.0938 3.90625C12.5625 4.375 12.6875 5 12.375 5.3125C12.0625 5.625 11.4375 5.5 10.9688 5.03125C10.5312 4.5625 10.4062 3.9375 10.7188 3.625ZM13.8438 2.15625C15.5625 3.875 16.9062 7.09375 15.1875 8.8125C13.9688 10.0312 11.625 12 9.4375 12H6.875L6.5 12.375C6.3125 12.5625 6.40625 12.8125 6.4375 12.9062C7.03125 14.375 5.96875 16 4.34375 16C3.1875 16 2.15625 15.125 2.09375 13.9062C0.46875 13.8125 0 12.3438 0 11.6562C0 10.9062 0.34375 10.2188 0.96875 9.78125C1.59375 9.375 2.40625 9.28125 3.09375 9.5625C3.34375 9.65625 3.53125 9.59375 3.625 9.5L4 9.125V6.5625C4 4.375 5.96875 2.03125 7.1875 0.8125C7.40625 0.59375 8.125 0 9.34375 0C10.3125 0 12.125 0.4375 13.8438 2.15625ZM9.4375 11C10.625 11 12.2188 10.1875 13.8125 8.75C13.6875 8.75 13.5312 8.78125 13.375 8.78125C12.0312 8.78125 10.4688 8.03125 9.21875 6.78125C8.25 5.78125 7.53125 4.5625 7.3125 3.4375C7.21875 3 7.21875 2.59375 7.28125 2.1875C5.84375 3.78125 5 5.375 5 6.5625V9.53125L4.34375 10.1875C3.90625 10.625 3.28125 10.7188 2.71875 10.4688C2.5625 10.4062 2.40625 10.375 2.25 10.4062C0.625 10.4062 0.5625 12.8125 2.15625 12.9062L3.0625 12.9375L3.09375 13.8438C3.1875 15.75 6.25 15.125 5.5 13.2812C5.28125 12.6875 5.40625 12.0625 5.8125 11.6562L6.4375 11H9.4375ZM14.4688 7.40625C15.2188 6.65625 14.8125 4.53125 13.1562 2.875C11.4062 1.125 9.3125 0.78125 8.59375 1.53125C7.84375 2.28125 8.25 4.40625 9.9375 6.0625C11.6875 7.8125 13.75 8.125 14.4688 7.40625Z" fill="#2C3C28"/>
</svg>
