<svg width="16" height="14" viewBox="0 0 16 14" fill="none" xmlns="http://www.w3.org/2000/svg">
<path d="M16 5.03125C15.9688 5.5625 15.75 6.0625 15.375 6.4375C15 6.8125 14.5 7 14 7V12.5625C13.9688 12.9688 13.8438 13.3125 13.5625 13.5938C13.2812 13.875 12.9375 14 12.5312 14H3.40625C3.03125 14 2.6875 13.875 2.40625 13.5938C2.125 13.3125 2 12.9688 2 12.5625V7C1.46875 7 0.96875 6.8125 0.59375 6.4375C0.21875 6.0625 0 5.5625 0 5.03125C0 2.625 3.1875 0 8 0C12.7812 0 16 2.625 16 5.03125ZM15 5.03125C15 3.40625 12.5 1 8 1C3.46875 1 1 3.40625 1 5.03125C1 5.625 1.46875 6 2.15625 6C2.375 6 2.59375 6.09375 2.75 6.25C2.90625 6.40625 3 6.625 3 6.84375V12.5625C3 12.6875 3.03125 12.8125 3.125 12.875C3.1875 12.9688 3.3125 13 3.40625 13H12.5312C12.5938 13 12.6562 13 12.7188 12.9688C12.7812 12.9688 12.8125 12.9375 12.8438 12.875C12.9062 12.8438 12.9375 12.7812 12.9375 12.75C12.9688 12.6875 13 12.625 13 12.5625V6.84375C13 6.625 13.0625 6.40625 13.2188 6.25C13.375 6.09375 13.5938 6 13.8125 6C14.5 6 15 5.625 15 5.03125ZM10.4688 6.9375C10.5938 7.09375 10.7188 7.25 10.7812 7.4375C10.875 7.625 10.9062 7.8125 10.9062 8C10.9062 8.21875 10.875 8.40625 10.7812 8.59375C10.7188 8.78125 10.5938 8.9375 10.4688 9.0625L9.03125 10.5C8.90625 10.625 8.75 10.75 8.5625 10.8125C8.375 10.875 8.1875 10.9375 8 10.9375C7.78125 10.9375 7.59375 10.875 7.40625 10.8125C7.21875 10.75 7.0625 10.625 6.9375 10.5L5.5 9.0625C5.375 8.9375 5.25 8.78125 5.1875 8.59375C5.09375 8.40625 5.0625 8.21875 5.0625 8C5.0625 7.8125 5.09375 7.625 5.1875 7.4375C5.25 7.25 5.375 7.09375 5.5 6.9375L6.9375 5.53125C7.0625 5.40625 7.21875 5.28125 7.40625 5.21875C7.59375 5.125 7.78125 5.09375 8 5.09375C8.1875 5.09375 8.375 5.125 8.5625 5.21875C8.75 5.28125 8.90625 5.40625 9.03125 5.53125L10.4688 6.9375ZM9.875 8.21875C9.875 8.15625 9.90625 8.09375 9.90625 8C9.90625 7.9375 9.875 7.875 9.875 7.8125C9.84375 7.75 9.8125 7.71875 9.75 7.65625L8.34375 6.25C8.28125 6.1875 8.25 6.15625 8.1875 6.125C8.125 6.125 8.0625 6.09375 8 6.09375C7.90625 6.09375 7.84375 6.125 7.78125 6.125C7.71875 6.15625 7.6875 6.1875 7.625 6.25L6.21875 7.65625C6.15625 7.71875 6.125 7.75 6.09375 7.8125C6.09375 7.875 6.0625 7.9375 6.0625 8C6.0625 8.09375 6.09375 8.15625 6.09375 8.21875C6.125 8.28125 6.15625 8.3125 6.21875 8.375L7.625 9.78125C7.6875 9.84375 7.71875 9.875 7.78125 9.90625C7.84375 9.90625 7.90625 9.9375 8 9.9375C8.0625 9.9375 8.125 9.90625 8.1875 9.90625C8.25 9.875 8.28125 9.84375 8.34375 9.78125L9.75 8.375C9.8125 8.3125 9.84375 8.28125 9.875 8.21875Z" fill="#2C3C28"/>
</svg>
