<svg width="15" height="17" viewBox="0 0 15 17" fill="none" xmlns="http://www.w3.org/2000/svg">
<path d="M14.875 7.21875C14.9688 7.34375 15 7.5 14.9688 7.65625L12.4688 16.6562C12.4062 16.875 12.2188 17 12 17H4C3.75 17 3.5625 16.875 3.5 16.6562L1 7.65625C0.96875 7.5 1 7.34375 1.09375 7.21875C1.1875 7.09375 1.34375 7 1.5 7H14.5C14.6562 7 14.7812 7.09375 14.875 7.21875ZM11.5938 16L13.8125 8H11.9062L10.9688 14.5938C10.9375 14.8438 10.7188 15 10.5 15C10.4688 15 10.4375 15 10.4062 15C10.125 14.9688 9.9375 14.7188 10 14.4375L10.9062 8H8.5V14.5C8.5 14.7812 8.25 15 8 15C7.71875 15 7.5 14.7812 7.5 14.5V8H5.0625L5.9375 14.4375C6 14.7188 5.8125 14.9688 5.53125 15C5.5 15 5.46875 15 5.46875 15C5.25 15 5.03125 14.8438 5 14.5938L4.0625 8H2.15625L4.375 16H11.5938ZM1.6875 5.625C1.5625 5.84375 1.625 6.15625 1.875 6.28125C1.96875 6.34375 2.03125 6.34375 2.125 6.34375C2.28125 6.34375 2.46875 6.25 2.5625 6.09375C2.6875 5.875 2.9375 5.71875 3.1875 5.6875C3.375 5.6875 3.53125 5.59375 3.59375 5.4375C3.6875 5.28125 3.6875 5.09375 3.59375 4.96875C3.46875 4.75 3.46875 4.5 3.59375 4.28125C3.78125 3.96875 4.125 3.8125 4.5 3.90625C4.625 3.9375 4.78125 3.875 4.90625 3.78125C5.03125 3.6875 5.09375 3.5625 5.09375 3.40625C5.09375 3.09375 5.3125 2.8125 5.65625 2.71875C5.90625 2.625 6.1875 2.6875 6.40625 2.84375C6.53125 2.9375 6.71875 2.96875 6.875 2.90625C7.03125 2.84375 7.125 2.71875 7.1875 2.59375C7.25 2.3125 7.46875 2.125 7.71875 2.0625C8.15625 1.90625 8.625 2.125 8.75 2.53125V2.5625C8.8125 2.6875 8.90625 2.8125 9.03125 2.875C9.1875 2.96875 9.40625 2.9375 9.5625 2.84375C9.78125 2.6875 10.0625 2.625 10.3125 2.71875C10.6562 2.8125 10.875 3.09375 10.875 3.40625C10.875 3.5625 10.9375 3.6875 11.0625 3.78125C11.1875 3.875 11.3438 3.9375 11.4688 3.90625C11.8438 3.8125 12.1875 3.96875 12.375 4.28125C12.5 4.5 12.5 4.75 12.375 4.96875C12.2812 5.125 12.2812 5.28125 12.375 5.4375C12.4375 5.59375 12.5938 5.6875 12.7812 5.71875C13.0312 5.71875 13.2812 5.875 13.4062 6.09375C13.5625 6.34375 13.875 6.4375 14.0938 6.28125C14.3438 6.15625 14.4062 5.84375 14.2812 5.59375C14.0938 5.28125 13.7812 5 13.4375 4.875C13.5 4.5 13.4375 4.125 13.25 3.78125C12.9375 3.25 12.375 2.9375 11.7812 2.875C11.625 2.375 11.1875 1.9375 10.625 1.75C10.25 1.625 9.84375 1.65625 9.46875 1.75C9.03125 1.15625 8.1875 0.875 7.40625 1.09375C7.03125 1.21875 6.71875 1.4375 6.5 1.75C6.125 1.65625 5.71875 1.625 5.34375 1.75C4.78125 1.9375 4.34375 2.34375 4.1875 2.875C3.59375 2.9375 3.03125 3.25 2.71875 3.78125C2.53125 4.125 2.46875 4.5 2.53125 4.875C2.15625 5.03125 1.875 5.28125 1.6875 5.625Z" fill="#2C3C28"/>
</svg>
