<svg width="16" height="15" viewBox="0 0 16 15" fill="none" xmlns="http://www.w3.org/2000/svg">
<path d="M14 3C15.0938 3 16 3.90625 16 5V13C16 14.125 15.0938 15 14 15H2C0.875 15 0 14.125 0 13V5C0 3.90625 0.875 3 2 3H4V1.5C4 0.6875 4.65625 0 5.5 0H10.5C11.3125 0 12 0.6875 12 1.5V3H14ZM5 1.5V3H11V1.5C11 1.25 10.75 1 10.5 1H5.5C5.21875 1 5 1.25 5 1.5ZM15 13V5C15 4.46875 14.5312 4 14 4H2C1.4375 4 1 4.46875 1 5V13C1 13.5625 1.4375 14 2 14H14C14.5312 14 15 13.5625 15 13ZM10.5 8C10.75 8 11 8.25 11 8.5V9.5C11 9.78125 10.75 10 10.5 10H9V11.5C9 11.7812 8.75 12 8.5 12H7.5C7.21875 12 7 11.7812 7 11.5V10H5.5C5.21875 10 5 9.78125 5 9.5V8.5C5 8.25 5.21875 8 5.5 8H7V6.5C7 6.25 7.21875 6 7.5 6H8.5C8.75 6 9 6.25 9 6.5V8H10.5Z" fill="#2C3C28"/>
</svg>
