<svg width="15" height="16" viewBox="0 0 15 16" fill="none" xmlns="http://www.w3.org/2000/svg">
<path d="M14.25 8.28125C13.7812 8.75 13.1562 9 12.5 9H3.5C2.875 9 2.25 8.78125 1.8125 8.34375C1.34375 7.9375 1.0625 7.34375 1 6.71875C0.96875 6.09375 1.15625 5.46875 1.53125 5C1.90625 4.5 2.46875 4.15625 3.0625 4.0625C3.3125 2.90625 3.90625 1.90625 4.8125 1.15625C5.6875 0.4375 6.8125 0.03125 7.96875 0.03125C9.125 0.03125 10.25 0.4375 11.1562 1.15625C12.0625 1.90625 12.6562 2.90625 12.875 4.0625C13.4688 4.15625 14 4.4375 14.375 4.90625C14.7812 5.34375 14.9688 5.90625 15 6.5C15 7.1875 14.7188 7.8125 14.25 8.28125ZM13.4688 7.59375C13.75 7.34375 13.9062 7 13.9375 6.625C13.9688 6.28125 13.875 5.90625 13.6562 5.59375C13.4062 5.3125 13.0938 5.125 12.7188 5.03125L12.0312 4.9375L11.9062 4.25C11.7188 3.34375 11.25 2.53125 10.5312 1.9375C9.8125 1.34375 8.90625 1.03125 8 1.03125C7.0625 1.03125 6.15625 1.34375 5.4375 1.9375C4.71875 2.53125 4.25 3.34375 4.0625 4.25L3.9375 4.9375L3.25 5.03125C2.875 5.125 2.5625 5.3125 2.3125 5.59375C2.09375 5.90625 2 6.28125 2.03125 6.625C2.0625 7 2.21875 7.34375 2.5 7.59375C2.75 7.84375 3.09375 8 3.46875 8H12.5C12.875 8 13.2188 7.84375 13.4688 7.59375ZM11.5 10.5C11.4688 10.5938 11.4688 10.6562 11.4375 10.75L9.25 15.125C9.15625 15.375 8.96875 15.5938 8.75 15.75C8.53125 15.9062 8.25 16 8 16C7.71875 16 7.4375 15.9062 7.21875 15.75C7 15.5938 6.8125 15.375 6.71875 15.125L4.53125 10.7188C4.46875 10.625 4.46875 10.4688 4.5 10.3438C4.5625 10.2188 4.65625 10.125 4.75 10.0625C4.875 10 5.03125 10 5.15625 10.0312C5.28125 10.0938 5.375 10.1562 5.4375 10.2812L7.59375 14.6875C7.625 14.7812 7.6875 14.8438 7.75 14.9062C7.8125 14.9375 7.90625 14.9688 8 15C8.0625 14.9688 8.15625 14.9375 8.21875 14.9062C8.28125 14.8438 8.34375 14.7812 8.375 14.6875L10.5312 10.2812C10.5938 10.1875 10.6875 10.0938 10.7812 10.0625C10.875 10 11 10 11.0938 10.0312C11.2188 10.0625 11.3125 10.125 11.375 10.1875C11.4375 10.2812 11.5 10.4062 11.5 10.5Z" fill="#2C3C28"/>
</svg>
