<svg width="18" height="17" viewBox="0 0 18 17" fill="none" xmlns="http://www.w3.org/2000/svg">
<path d="M16.8438 3.65625C17.0312 3.84375 17.0312 4.1875 16.8438 4.375C16.75 4.46875 16.625 4.5 16.5 4.5C16.4062 4.5 16.3125 4.5 16.25 4.4375L13.3438 7.34375C13.875 8.84375 13.4688 10.5312 12.3438 11.6875L7.6875 16.3125C7.25 16.7812 6.65625 17 6 17C5.375 17 4.78125 16.7812 4.34375 16.3125L1.6875 13.6562C0.75 12.75 0.75 11.25 1.6875 10.3125L6.3125 5.65625C7.46875 4.5 9.125 4.125 10.6562 4.625L13.5625 1.75C13.4375 1.5625 13.4688 1.3125 13.625 1.15625C13.8125 0.96875 14.1562 0.96875 14.3438 1.15625L16.8438 3.65625ZM6.96875 15.625L7.40625 15.1562L2.8125 10.5625L2.34375 11C1.8125 11.5625 1.8125 12.4062 2.34375 12.9688L5 15.625C5.53125 16.125 6.4375 16.125 6.96875 15.625ZM8.125 14.4688L10.9375 11.6562L6.34375 7.0625L3.53125 9.84375L8.125 14.4688ZM11.625 10.9688C12.5625 10 12.8438 8.625 12.3125 7.40625L12.1875 7.09375L13.2812 6L12 4.71875L10.9062 5.8125L10.5938 5.6875C10.5312 5.65625 8.625 4.78125 7.03125 6.34375L11.625 10.9688ZM13.9688 5.3125L15.5312 3.75L14.25 2.5L12.7188 4.03125L13.9688 5.3125Z" fill="#2C3C28"/>
</svg>
