<svg width="14" height="14" viewBox="0 0 14 14" fill="none" xmlns="http://www.w3.org/2000/svg">
<path d="M11.4688 8.40625C12.375 8.9375 13 9.90625 13 11.0312C13 12.6875 11.6562 14 10 14C9.9375 14 9.90625 14 9.875 14C8.34375 14 7.71875 13 7 13C6.25 13 5.625 14 4.09375 14C4.0625 14 4.03125 14 4 14C2.34375 14 1 12.6562 1 11C1 9.90625 1.59375 8.9375 2.5 8.40625C3.34375 7.9375 3.96875 6.5 4.59375 5.34375C5.09375 4.46875 6.03125 4 7 4C7.9375 4 8.875 4.46875 9.375 5.375C10 6.5 10.625 7.96875 11.4688 8.40625ZM9.9375 13C11.0938 13 12 12.125 12 11C12 10.3125 11.5938 9.625 10.9688 9.28125C10.0312 8.75 9.40625 7.5625 8.8125 6.4375C8.6875 6.21875 8.59375 6.03125 8.5 5.84375C8.21875 5.3125 7.65625 5 7 5C6.34375 5 5.78125 5.3125 5.46875 5.84375C5.375 6.03125 5.25 6.25 5.15625 6.46875C4.5625 7.59375 3.9375 8.75 3 9.28125C2.375 9.625 2 10.3125 2 11.0312C2 12.125 2.875 13 4 13H4.09375C4.75 13 5.125 12.7812 5.5625 12.5312C5.96875 12.2812 6.40625 12 7 12C7.5625 12 8 12.2812 8.40625 12.5312C8.84375 12.7812 9.25 13 9.875 13H9.9375ZM3.5 5.25C3.5 6.21875 2.6875 7 1.75 7C0.78125 7 0 6.21875 0 5.25C0 4.3125 0.78125 3.5 1.75 3.5C2.6875 3.5 3.5 4.3125 3.5 5.25ZM1 5.25C1 5.6875 1.3125 6 1.75 6C2.15625 6 2.5 5.6875 2.5 5.25C2.5 4.84375 2.15625 4.5 1.75 4.5C1.3125 4.5 1 4.84375 1 5.25ZM12.25 3.5C13.1875 3.5 14 4.3125 14 5.25C14 6.21875 13.1875 7 12.25 7C11.2812 7 10.5 6.21875 10.5 5.25C10.5 4.3125 11.2812 3.5 12.25 3.5ZM12.25 6C12.6562 6 13 5.6875 13 5.25C13 4.84375 12.6562 4.5 12.25 4.5C11.8125 4.5 11.5 4.84375 11.5 5.25C11.5 5.6875 11.8125 6 12.25 6ZM9.25 3.5C8.28125 3.5 7.5 2.71875 7.5 1.75C7.5 0.8125 8.28125 0 9.25 0C10.1875 0 11 0.8125 11 1.75C11 2.71875 10.1875 3.5 9.25 3.5ZM9.25 1C8.8125 1 8.5 1.34375 8.5 1.75C8.5 2.1875 8.8125 2.5 9.25 2.5C9.65625 2.5 10 2.1875 10 1.75C10 1.34375 9.65625 1 9.25 1ZM4.75 3.5C3.78125 3.5 3 2.71875 3 1.75C3 0.8125 3.78125 0 4.75 0C5.6875 0 6.5 0.8125 6.5 1.75C6.5 2.71875 5.6875 3.5 4.75 3.5ZM4.75 1C4.3125 1 4 1.34375 4 1.75C4 2.1875 4.3125 2.5 4.75 2.5C5.15625 2.5 5.5 2.1875 5.5 1.75C5.5 1.34375 5.15625 1 4.75 1Z" fill="#2C3C28"/>
</svg>
