<svg width="18" height="17" viewBox="0 0 18 17" fill="none" xmlns="http://www.w3.org/2000/svg">
<path d="M7 13.5C7 13.7812 6.75 14 6.5 14C6.21875 14 6 13.7812 6 13.5V10.5C6 10.25 6.21875 10 6.5 10C6.75 10 7 10.25 7 10.5V13.5ZM9 10C9.25 10 9.5 10.25 9.5 10.5V13.5C9.5 13.7812 9.25 14 9 14C8.71875 14 8.5 13.7812 8.5 13.5V10.5C8.5 10.25 8.71875 10 9 10ZM12 13.5C12 13.7812 11.75 14 11.5 14C11.2188 14 11 13.7812 11 13.5V10.5C11 10.25 11.2188 10 11.5 10C11.75 10 12 10.25 12 10.5V13.5ZM10.9062 1.25L14.2812 7H17.5C17.75 7 18 7.25 18 7.5C18 7.78125 17.75 8 17.5 8H16.75L14.875 15.5C14.625 16.375 13.8438 17 12.9375 17H5.03125C4.125 17 3.34375 16.375 3.09375 15.5L1.25 8H0.5C0.21875 8 0 7.78125 0 7.5C0 7.25 0.21875 7 0.5 7H3.6875L7.0625 1.25C7.1875 1.03125 7.5 0.9375 7.75 1.09375C7.96875 1.21875 8.0625 1.53125 7.90625 1.78125L4.84375 7H13.125L10.0625 1.78125C9.90625 1.53125 10 1.21875 10.2188 1.09375C10.4688 0.9375 10.7812 1.03125 10.9062 1.25ZM4.0625 15.25C4.1875 15.6875 4.59375 16 5.03125 16H12.9375C13.375 16 13.7812 15.6875 13.9062 15.25L15.7188 8H2.25L4.0625 15.25Z" fill="#2C3C28"/>
</svg>
