<svg width="16" height="16" viewBox="0 0 16 16" fill="none" xmlns="http://www.w3.org/2000/svg">
<path d="M8 0C12.4062 0 16 3.59375 16 8C16 12.4375 12.4062 16 8 16C3.5625 16 0 12.4375 0 8C0 3.59375 3.5625 0 8 0ZM8 15C11.8438 15 15 11.875 15 8C15 4.15625 11.8438 1 8 1C4.125 1 1 4.15625 1 8C1 11.875 4.125 15 8 15ZM8 5.75C7.5625 5.75 7.25 5.4375 7.25 5C7.25 4.59375 7.5625 4.25 8 4.25C8.40625 4.25 8.75 4.59375 8.75 5C8.75 5.4375 8.40625 5.75 8 5.75ZM9.5 11C9.75 11 10 11.25 10 11.5C10 11.7812 9.75 12 9.5 12H6.5C6.21875 12 6 11.7812 6 11.5C6 11.25 6.21875 11 6.5 11H7.5V8H7C6.71875 8 6.5 7.78125 6.5 7.5C6.5 7.25 6.71875 7 7 7H8C8.25 7 8.5 7.25 8.5 7.5V11H9.5Z" fill="#2C3C28"/>
</svg>
