<svg width="30" height="30" viewBox="0 0 30 30" fill="none" xmlns="http://www.w3.org/2000/svg">
<path d="M29.9279 28.7702L24.6341 16.4193C24.4949 16.095 24.1758 15.8846 23.8231 15.8846H20.4611C21.8218 13.5075 22.9408 10.8765 22.9408 8.65036C22.9408 -2.81342 7.05916 -2.95327 7.05916 8.65036C7.05916 10.8765 8.17816 13.5075 9.53886 15.8846H6.17682C5.82389 15.8846 5.50483 16.095 5.3659 16.4193L0.0720946 28.7702C-0.176928 29.3511 0.249707 30 0.883022 30H29.1169C29.7489 30 30.1773 29.3525 29.9279 28.7702ZM23.2411 17.6491L25.8533 23.7433C25.7716 23.7859 17.2696 28.2008 17.2087 28.2355H15.3618C15.3151 28.1834 15.712 28.5823 9.96161 22.8326L13.1557 21.1979C13.8068 22.029 14.263 22.557 14.3342 22.6389C14.6857 23.0436 15.3145 23.0429 15.6656 22.6389C15.8132 22.4691 17.6117 20.3851 19.3835 17.6491H23.2411ZM15 1.76902C17.9745 1.76902 21.1761 3.92257 21.1761 8.65036C21.1761 12.6256 16.72 18.5415 15 20.6765C13.2799 18.5413 8.82384 12.6256 8.82384 8.65036C8.82384 3.89694 11.9256 1.76902 15 1.76902ZM6.75864 17.6491C11.0328 17.6491 10.5471 17.6498 10.6155 17.6477C11.1124 18.4151 11.6114 19.1313 12.0756 19.7685L4.10087 23.8499L6.75864 17.6491ZM3.01254 26.3892L8.31114 23.6774L12.87 28.2355H2.22106L3.01254 26.3892ZM21.0328 28.2355L26.5505 25.3695L27.7789 28.2355H21.0328Z" fill="#629D23"/>
<path d="M17.6467 7.94469C17.6467 6.48534 16.4593 5.2979 15 5.2979C13.5404 5.2979 12.3529 6.48534 12.3529 7.94469C12.3529 9.40404 13.5404 10.5913 15 10.5913C16.4593 10.5913 17.6467 9.40404 17.6467 7.94469ZM14.1176 7.94469C14.1176 7.45809 14.5134 7.06235 15 7.06235C15.4863 7.06235 15.8823 7.45809 15.8823 7.94469C15.8823 8.43106 15.4863 8.8268 15 8.8268C14.5134 8.8268 14.1176 8.43106 14.1176 7.94469Z" fill="#629D23"/>
</svg>
