<svg width="32" height="30" viewBox="0 0 32 30" fill="none" xmlns="http://www.w3.org/2000/svg">
<path d="M29.9138 5.79867C28.7202 4.15632 26.6301 2.67394 24.0282 1.62473C21.4404 0.581233 18.4358 0.00419791 15.5677 6.66848e-05C12.6994 -0.00710221 9.69106 0.563979 7.09956 1.5994C4.49325 2.64077 2.39805 4.11671 1.20017 5.75517C0.0496263 7.32886 -0.281965 9.02503 0.241182 10.6603C0.58055 11.7212 1.57052 12.435 2.70521 12.4366L6.59045 12.4403C6.59173 12.4403 6.593 12.4403 6.59434 12.4403C7.36907 12.4402 8.09695 12.1011 8.5916 11.5094C9.08103 10.9241 9.28377 10.1591 9.14786 9.41045C9.14391 9.38852 9.13905 9.36665 9.13352 9.34496L8.92909 8.55019C10.0612 8.01003 12.6262 6.96641 15.5558 6.98299C18.4832 6.998 21.0465 8.04101 22.1799 8.58141L21.9722 9.37169C21.9663 9.39405 21.9613 9.41659 21.9571 9.43925C21.8191 10.1874 22.0196 10.953 22.5073 11.5397C23.0011 12.1339 23.7296 12.4752 24.5063 12.4764L28.3915 12.48C28.3928 12.48 28.3942 12.48 28.3954 12.48C29.5279 12.48 30.5182 11.7694 30.8602 10.7108C31.3882 9.07588 31.061 7.37728 29.9138 5.79867ZM29.0935 10.1401C29.0015 10.4249 28.7146 10.6236 28.3948 10.6236L24.5084 10.6199C24.2846 10.6196 24.0756 10.5224 23.9349 10.353C23.8584 10.261 23.739 10.0696 23.7781 9.80334L24.1646 8.33293C24.2705 7.92996 24.0949 7.5059 23.7352 7.29557C23.5853 7.20796 20.0129 5.14928 15.5652 5.12637C15.5405 5.12625 15.5165 5.12619 15.4918 5.12619C11.0728 5.12619 7.52581 7.17589 7.37617 7.26361C7.01876 7.47321 6.84355 7.89423 6.94677 8.29557L7.32563 9.76835C7.36433 10.0351 7.24422 10.2266 7.16736 10.3185C7.02648 10.4871 6.81761 10.5837 6.59379 10.5837L2.7074 10.58C2.38766 10.5795 2.1006 10.3799 2.00935 10.0945C1.66961 9.03245 1.90157 7.94101 2.69878 6.85061C4.81645 3.95414 10.2113 1.85626 15.5361 1.85626C15.5456 1.85626 15.5557 1.85626 15.5652 1.85626C20.8952 1.86392 26.2982 3.98087 28.4122 6.88986C29.2074 7.98445 29.4367 9.07795 29.0935 10.1401Z" fill="#629D23"/>
<path d="M24.3375 16.4464L21.4401 13.4041C21.2648 13.2202 21.022 13.1161 20.768 13.1161H18.8956V11.851C18.8956 11.3384 18.48 10.9228 17.9674 10.9228C17.4548 10.9228 17.0392 11.3384 17.0392 11.851V13.1161H14.067V11.851C14.067 11.3384 13.6514 10.9228 13.1388 10.9228C12.6262 10.9228 12.2106 11.3384 12.2106 11.851V13.1161H10.3383C10.0843 13.1161 9.8413 13.2202 9.66615 13.4041L6.76882 16.4464C4.49713 18.8317 3.24604 21.9594 3.24604 25.2533V29.0718C3.24604 29.5844 3.66159 30 4.17423 30H26.9319C27.4446 30 27.8601 29.5844 27.8601 29.0718V25.2533C27.8603 21.9593 26.6092 18.8317 24.3375 16.4464ZM5.10242 28.1436V25.2533C5.10242 22.4382 6.17162 19.7652 8.11317 17.7265L10.7361 14.9724H20.3702L22.9931 17.7265C24.9346 19.7651 26.0038 22.4382 26.0038 25.2533V28.1436H5.10242Z" fill="#629D23"/>
<path d="M15.5531 16.8916C12.8745 16.8916 10.6954 19.0708 10.6954 21.7493C10.6954 24.4279 12.8746 26.6072 15.5531 26.6072C18.2317 26.6072 20.4109 24.4279 20.4109 21.7493C20.4109 19.0707 18.2318 16.8916 15.5531 16.8916ZM15.5531 24.7507C13.8981 24.7507 12.5518 23.4043 12.5518 21.7493C12.5518 20.0943 13.8982 18.7479 15.5531 18.7479C17.2081 18.7479 18.5545 20.0943 18.5545 21.7493C18.5545 23.4043 17.2081 24.7507 15.5531 24.7507Z" fill="#629D23"/>
</svg>
