<svg width="35" height="30" viewBox="0 0 35 30" fill="none" xmlns="http://www.w3.org/2000/svg">
<path d="M32.0035 22.5827C35.3019 17.9549 34.7977 11.6146 30.2925 7.48453C28.234 5.59753 25.6098 4.4228 22.7751 4.09473C22.7574 4.073 22.7393 4.05147 22.7195 4.03087C20.2535 1.4692 16.7105 0 12.9992 0C5.9366 0 0 5.2622 0 12C0 14.3623 0.7338 16.6269 2.12773 18.5827L0.180467 24.6965C0.0580667 25.0807 0.178467 25.5008 0.485733 25.7619C0.793533 26.0235 1.22773 26.0738 1.58647 25.8913L7.50827 22.8802C8.7244 23.4039 10.014 23.7475 11.3495 23.9038C13.9256 26.6129 17.4877 28 21.132 28C23.0264 28 24.9139 27.6139 26.6227 26.8801L32.5447 29.8914C32.6881 29.9643 32.8434 30 32.9977 30C33.6726 30 34.1564 29.3423 33.9507 28.6965L32.0035 22.5827ZM7.91187 20.8681C7.6318 20.7351 7.306 20.7395 7.02967 20.88L2.81187 23.0247L4.1892 18.7003C4.28947 18.3854 4.2278 18.0414 4.02433 17.7811C2.69993 16.0857 1.99987 14.0867 1.99987 12C1.99987 6.486 6.93413 2 12.9992 2C15.4416 2 17.7929 2.73993 19.7001 4.0724C13.2769 4.71827 8.1328 9.7352 8.1328 16C8.1328 17.9485 8.63227 19.8244 9.57393 21.5051C9.0038 21.3353 8.44853 21.1229 7.91187 20.8681ZM27.1015 24.8799C26.8292 24.7415 26.5031 24.7331 26.2193 24.8681C24.6603 25.6086 22.9012 26 21.132 26C15.0669 26 10.1327 21.514 10.1327 16C10.1327 10.486 15.0669 6 21.132 6C27.1971 6 32.1313 10.486 32.1313 16C32.1313 18.0867 31.4313 20.0857 30.1068 21.781C29.9034 22.0413 29.8417 22.3853 29.9419 22.7002L31.3193 27.0246L27.1015 24.8799Z" fill="#629D23"/>
<path d="M17.0656 17C17.6179 17 18.0656 16.5523 18.0656 16C18.0656 15.4477 17.6179 15 17.0656 15C16.5133 15 16.0656 15.4477 16.0656 16C16.0656 16.5523 16.5133 17 17.0656 17Z" fill="#629D23"/>
<path d="M21.0654 17C21.6177 17 22.0654 16.5523 22.0654 16C22.0654 15.4477 21.6177 15 21.0654 15C20.5131 15 20.0654 15.4477 20.0654 16C20.0654 16.5523 20.5131 17 21.0654 17Z" fill="#629D23"/>
<path d="M25.0651 17C25.6174 17 26.0651 16.5523 26.0651 16C26.0651 15.4477 25.6174 15 25.0651 15C24.5128 15 24.0651 15.4477 24.0651 16C24.0651 16.5523 24.5128 17 25.0651 17Z" fill="#629D23"/>
</svg>
